  0
SECTION
  2
HEADER
  9
$ACADVER
  1
AC1009
  9
$FILLMODE
 70
1
  9
$EXTMIN
 10
0.000000
 20
0.000000
 30
0.000000
  9
$EXTMAX
 10
2.250000
 20
2.450000
 30
0.000000
  0
ENDSEC
  0
SECTION
  2
TABLES
  0
TABLE
  2
LTYPE
 70
1
  0
LTYPE
  2
CONTINUOUS
 70
64
  3
Solid line
 72
65
 73
0
 40
0
  0
ENDTAB
  0
TABLE
  2
LAYER
 70
255
  0
LAYER
  2
1
 70
64
 62
22
  6
CONTINUOUS
  0
LAYER
  2
16
 70
64
 62
175
  6
CONTINUOUS
  0
LAYER
  2
17
 70
64
 62
82
  6
CONTINUOUS
  0
LAYER
  2
18
 70
64
 62
82
  6
CONTINUOUS
  0
LAYER
  2
19
 70
64
 62
53
  6
CONTINUOUS
  0
LAYER
  2
20
 70
64
 62
7
  6
CONTINUOUS
  0
LAYER
  2
21
 70
64
 62
253
  6
CONTINUOUS
  0
LAYER
  2
22
 70
64
 62
253
  6
CONTINUOUS
  0
LAYER
  2
23
 70
64
 62
7
  6
CONTINUOUS
  0
LAYER
  2
24
 70
64
 62
7
  6
CONTINUOUS
  0
LAYER
  2
25
 70
64
 62
253
  6
CONTINUOUS
  0
LAYER
  2
26
 70
64
 62
253
  6
CONTINUOUS
  0
LAYER
  2
27
 70
64
 62
253
  6
CONTINUOUS
  0
LAYER
  2
28
 70
64
 62
253
  6
CONTINUOUS
  0
LAYER
  2
39
 70
64
 62
22
  6
CONTINUOUS
  0
LAYER
  2
40
 70
64
 62
175
  6
CONTINUOUS
  0
LAYER
  2
41
 70
64
 62
22
  6
CONTINUOUS
  0
LAYER
  2
42
 70
64
 62
175
  6
CONTINUOUS
  0
LAYER
  2
43
 70
64
 62
82
  6
CONTINUOUS
  0
LAYER
  2
45
 70
64
 62
253
  6
CONTINUOUS
  0
LAYER
  2
48
 70
64
 62
253
  6
CONTINUOUS
  0
LAYER
  2
49
 70
64
 62
253
  6
CONTINUOUS
  0
LAYER
  2
51
 70
64
 62
253
  6
CONTINUOUS
  0
LAYER
  2
52
 70
64
 62
253
  6
CONTINUOUS
  0
LAYER
  2
101
 70
64
 62
1
  6
CONTINUOUS
  0
LAYER
  2
102
 70
64
 62
253
  6
CONTINUOUS
  0
LAYER
  2
103
 70
64
 62
253
  6
CONTINUOUS
  0
LAYER
  2
104
 70
64
 62
251
  6
CONTINUOUS
  0
LAYER
  2
105
 70
64
 62
253
  6
CONTINUOUS
  0
LAYER
  2
106
 70
64
 62
253
  6
CONTINUOUS
  0
LAYER
  2
107
 70
64
 62
253
  6
CONTINUOUS
  0
LAYER
  2
108
 70
64
 62
3
  6
CONTINUOUS
  0
LAYER
  2
109
 70
64
 62
4
  6
CONTINUOUS
  0
LAYER
  2
110
 70
64
 62
253
  6
CONTINUOUS
  0
LAYER
  2
111
 70
64
 62
253
  6
CONTINUOUS
  0
LAYER
  2
112
 70
64
 62
253
  6
CONTINUOUS
  0
LAYER
  2
113
 70
64
 62
253
  6
CONTINUOUS
  0
LAYER
  2
116
 70
64
 62
5
  6
CONTINUOUS
  0
LAYER
  2
121
 70
64
 62
253
  6
CONTINUOUS
  0
LAYER
  2
122
 70
64
 62
253
  6
CONTINUOUS
  0
LAYER
  2
123
 70
64
 62
253
  6
CONTINUOUS
  0
LAYER
  2
124
 70
64
 62
253
  6
CONTINUOUS
  0
LAYER
  2
125
 70
64
 62
253
  6
CONTINUOUS
  0
LAYER
  2
126
 70
64
 62
253
  6
CONTINUOUS
  0
LAYER
  2
127
 70
64
 62
253
  6
CONTINUOUS
  0
LAYER
  2
128
 70
64
 62
253
  6
CONTINUOUS
  0
LAYER
  2
131
 70
64
 62
253
  6
CONTINUOUS
  0
LAYER
  2
132
 70
64
 62
253
  6
CONTINUOUS
  0
LAYER
  2
144
 70
64
 62
253
  6
CONTINUOUS
  0
LAYER
  2
150
 70
64
 62
253
  6
CONTINUOUS
  0
LAYER
  2
151
 70
64
 62
253
  6
CONTINUOUS
  0
LAYER
  2
152
 70
64
 62
253
  6
CONTINUOUS
  0
LAYER
  2
153
 70
64
 62
253
  6
CONTINUOUS
  0
LAYER
  2
154
 70
64
 62
253
  6
CONTINUOUS
  0
LAYER
  2
155
 70
64
 62
253
  6
CONTINUOUS
  0
LAYER
  2
199
 70
64
 62
253
  6
CONTINUOUS
  0
LAYER
  2
200
 70
64
 62
175
  6
CONTINUOUS
  0
LAYER
  2
201
 70
64
 62
82
  6
CONTINUOUS
  0
LAYER
  2
202
 70
64
 62
140
  6
CONTINUOUS
  0
LAYER
  2
203
 70
64
 62
22
  6
CONTINUOUS
  0
LAYER
  2
204
 70
64
 62
213
  6
CONTINUOUS
  0
LAYER
  2
205
 70
64
 62
53
  6
CONTINUOUS
  0
LAYER
  2
206
 70
64
 62
253
  6
CONTINUOUS
  0
LAYER
  2
207
 70
64
 62
250
  6
CONTINUOUS
  0
LAYER
  2
208
 70
64
 62
5
  6
CONTINUOUS
  0
LAYER
  2
209
 70
64
 62
253
  6
CONTINUOUS
  0
LAYER
  2
210
 70
64
 62
253
  6
CONTINUOUS
  0
LAYER
  2
211
 70
64
 62
253
  6
CONTINUOUS
  0
LAYER
  2
212
 70
64
 62
253
  6
CONTINUOUS
  0
LAYER
  2
213
 70
64
 62
253
  6
CONTINUOUS
  0
LAYER
  2
214
 70
64
 62
253
  6
CONTINUOUS
  0
LAYER
  2
215
 70
64
 62
253
  6
CONTINUOUS
  0
LAYER
  2
216
 70
64
 62
253
  6
CONTINUOUS
  0
LAYER
  2
248
 70
64
 62
253
  6
CONTINUOUS
  0
LAYER
  2
249
 70
64
 62
253
  6
CONTINUOUS
  0
LAYER
  2
254
 70
64
 62
253
  6
CONTINUOUS
  0
ENDTAB
  0
ENDSEC
  0
SECTION
  2
BLOCKS
  0
BLOCK
  8
0
  2
RECT
 70
64
 10
0.000000
 20
0.000000
 30
0.000000
  3
RECT
  0
SOLID
  8
0
 10
-0.500000
 20
-0.500000
 30
0.000000
 11
0.500000
 21
-0.500000
 31
0.000000
 12
-0.500000
 22
0.500000
 32
0.000000
 13
0.500000
 23
0.500000
 33
0.000000
  0
ENDBLK
  8
0
  0
BLOCK
  8
0
  2
PIE
 70
64
 10
0.000000
 20
0.000000
 30
0.000000
  3
PIE
  0
POLYLINE
  8
0
 66
1
 10
0.000000
 20
0.000000
 30
0.000000
 40
0.500000
 41
0.500000
 70
0
  0
VERTEX
  8
0
 10
0.000000
 20
-0.250000
 30
0.000000
 42
1.000000
  0
VERTEX
  8
0
 10
0.000000
 20
0.250000
 30
0.000000
 42
1.000000
  0
VERTEX
  8
0
 10
0.000000
 20
-0.250000
 30
0.000000
  0
SEQEND
  8
0
  0
ENDBLK
  8
0
  0
BLOCK
  8
0
  2
OCTAGONP
 70
64
 10
0.000000
 20
0.000000
 30
0.000000
  3
OCTAGONP
  0
POLYLINE
  8
0
 66
1
 10
0.000000
 20
0.000000
 30
0.000000
 40
0.500000
 41
0.500000
 70
0
  0
VERTEX
  8
0
 10
-0.250000
 20
-0.103553
 30
0.000000
  0
VERTEX
  8
0
 10
-0.250000
 20
0.103553
 30
0.000000
  0
VERTEX
  8
0
 10
-0.103553
 20
0.250000
 30
0.000000
  0
VERTEX
  8
0
 10
0.103553
 20
0.250000
 30
0.000000
  0
VERTEX
  8
0
 10
0.250000
 20
0.103553
 30
0.000000
  0
VERTEX
  8
0
 10
0.250000
 20
-0.103553
 30
0.000000
  0
VERTEX
  8
0
 10
0.103553
 20
-0.250000
 30
0.000000
  0
VERTEX
  8
0
 10
-0.103553
 20
-0.250000
 30
0.000000
  0
VERTEX
  8
0
 10
-0.250000
 20
-0.103553
 30
0.000000
  0
VERTEX
  8
0
 10
-0.250000
 20
0.103553
 30
0.000000
  0
SEQEND
  8
0
  0
ENDBLK
  8
0
  0
BLOCK
  8
0
  2
SQUAREP
 70
64
 10
0.000000
 20
0.000000
 30
0.000000
  3
SQUAREP
  0
SOLID
  8
0
 10
-0.500000
 20
-0.500000
 30
0.000000
 11
0.500000
 21
-0.500000
 31
0.000000
 12
-0.500000
 22
0.500000
 32
0.000000
 13
0.500000
 23
0.500000
 33
0.000000
  0
ENDBLK
  8
0
  0
BLOCK
  8
0
  2
ROUNDP
 70
64
 10
0.000000
 20
0.000000
 30
0.000000
  3
ROUNDP
  0
POLYLINE
  8
0
 66
1
 10
0.000000
 20
0.000000
 30
0.000000
 40
0.500000
 41
0.500000
 70
0
  0
VERTEX
  8
0
 10
0.000000
 20
-0.250000
 30
0.000000
 42
1.000000
  0
VERTEX
  8
0
 10
0.000000
 20
0.250000
 30
0.000000
 42
1.000000
  0
VERTEX
  8
0
 10
0.000000
 20
-0.250000
 30
0.000000
  0
SEQEND
  8
0
  0
ENDBLK
  8
0
  0
BLOCK
  8
0
  2
ANNULUSP
 70
64
 10
0.000000
 20
0.000000
 30
0.000000
  3
ANNULUSP
  0
POLYLINE
  8
0
 66
1
 10
0.000000
 20
0.000000
 30
0.000000
 40
0.500000
 41
0.500000
 70
0
  0
VERTEX
  8
0
 10
0.000000
 20
-0.250000
 30
0.000000
 42
1.000000
  0
VERTEX
  8
0
 10
0.000000
 20
0.250000
 30
0.000000
 42
1.000000
  0
VERTEX
  8
0
 10
0.000000
 20
-0.250000
 30
0.000000
  0
SEQEND
  8
0
  0
ENDBLK
  8
0
  0
BLOCK
  8
0
  2
THERMALP
 70
64
 10
0.000000
 20
0.000000
 30
0.000000
  3
THERMALP
  0
POLYLINE
  8
0
 66
1
 10
0.000000
 20
0.000000
 30
0.000000
 40
0.100000
 41
0.100000
 70
0
  0
VERTEX
  8
0
 10
-0.237868
 20
0.450000
 30
0.000000
  0
VERTEX
  8
0
 10
0.237868
 20
0.450000
 30
0.000000
  0
SEQEND
  8
0
  0
POLYLINE
  8
0
 66
1
 10
0.000000
 20
0.000000
 30
0.000000
 40
0.050000
 41
0.050000
 70
0
  0
VERTEX
  8
0
 10
0.237868
 20
0.425000
 30
0.000000
 42
1.000000
  0
VERTEX
  8
0
 10
0.237868
 20
0.475000
 30
0.000000
  0
SEQEND
  8
0
  0
POLYLINE
  8
0
 66
1
 10
0.000000
 20
0.000000
 30
0.000000
 40
0.050000
 41
0.050000
 70
0
  0
VERTEX
  8
0
 10
-0.237868
 20
0.475000
 30
0.000000
 42
1.000000
  0
VERTEX
  8
0
 10
-0.237868
 20
0.425000
 30
0.000000
  0
SEQEND
  8
0
  0
POLYLINE
  8
0
 66
1
 10
0.000000
 20
0.000000
 30
0.000000
 40
0.100000
 41
0.100000
 70
0
  0
VERTEX
  8
0
 10
0.450000
 20
0.237868
 30
0.000000
  0
VERTEX
  8
0
 10
0.450000
 20
-0.237868
 30
0.000000
  0
SEQEND
  8
0
  0
POLYLINE
  8
0
 66
1
 10
0.000000
 20
0.000000
 30
0.000000
 40
0.050000
 41
0.050000
 70
0
  0
VERTEX
  8
0
 10
0.425000
 20
-0.237868
 30
0.000000
 42
1.000000
  0
VERTEX
  8
0
 10
0.475000
 20
-0.237868
 30
0.000000
  0
SEQEND
  8
0
  0
POLYLINE
  8
0
 66
1
 10
0.000000
 20
0.000000
 30
0.000000
 40
0.050000
 41
0.050000
 70
0
  0
VERTEX
  8
0
 10
0.475000
 20
0.237868
 30
0.000000
 42
1.000000
  0
VERTEX
  8
0
 10
0.425000
 20
0.237868
 30
0.000000
  0
SEQEND
  8
0
  0
POLYLINE
  8
0
 66
1
 10
0.000000
 20
0.000000
 30
0.000000
 40
0.100000
 41
0.100000
 70
0
  0
VERTEX
  8
0
 10
0.237868
 20
-0.450000
 30
0.000000
  0
VERTEX
  8
0
 10
-0.237868
 20
-0.450000
 30
0.000000
  0
SEQEND
  8
0
  0
POLYLINE
  8
0
 66
1
 10
0.000000
 20
0.000000
 30
0.000000
 40
0.050000
 41
0.050000
 70
0
  0
VERTEX
  8
0
 10
-0.237868
 20
-0.425000
 30
0.000000
 42
1.000000
  0
VERTEX
  8
0
 10
-0.237868
 20
-0.475000
 30
0.000000
  0
SEQEND
  8
0
  0
POLYLINE
  8
0
 66
1
 10
0.000000
 20
0.000000
 30
0.000000
 40
0.050000
 41
0.050000
 70
0
  0
VERTEX
  8
0
 10
0.237868
 20
-0.475000
 30
0.000000
 42
1.000000
  0
VERTEX
  8
0
 10
0.237868
 20
-0.425000
 30
0.000000
  0
SEQEND
  8
0
  0
POLYLINE
  8
0
 66
1
 10
0.000000
 20
0.000000
 30
0.000000
 40
0.100000
 41
0.100000
 70
0
  0
VERTEX
  8
0
 10
-0.450000
 20
-0.237868
 30
0.000000
  0
VERTEX
  8
0
 10
-0.450000
 20
0.237868
 30
0.000000
  0
SEQEND
  8
0
  0
POLYLINE
  8
0
 66
1
 10
0.000000
 20
0.000000
 30
0.000000
 40
0.050000
 41
0.050000
 70
0
  0
VERTEX
  8
0
 10
-0.425000
 20
0.237868
 30
0.000000
 42
1.000000
  0
VERTEX
  8
0
 10
-0.475000
 20
0.237868
 30
0.000000
  0
SEQEND
  8
0
  0
POLYLINE
  8
0
 66
1
 10
0.000000
 20
0.000000
 30
0.000000
 40
0.050000
 41
0.050000
 70
0
  0
VERTEX
  8
0
 10
-0.475000
 20
-0.237868
 30
0.000000
 42
1.000000
  0
VERTEX
  8
0
 10
-0.425000
 20
-0.237868
 30
0.000000
  0
SEQEND
  8
0
  0
ENDBLK
  8
0
  0
BLOCK
  8
0
  2
OCTAGONV
 70
64
 10
0.000000
 20
0.000000
 30
0.000000
  3
OCTAGONV
  0
POLYLINE
  8
0
 66
1
 10
0.000000
 20
0.000000
 30
0.000000
 40
0.500000
 41
0.500000
 70
0
  0
VERTEX
  8
0
 10
-0.250000
 20
-0.103553
 30
0.000000
  0
VERTEX
  8
0
 10
-0.250000
 20
0.103553
 30
0.000000
  0
VERTEX
  8
0
 10
-0.103553
 20
0.250000
 30
0.000000
  0
VERTEX
  8
0
 10
0.103553
 20
0.250000
 30
0.000000
  0
VERTEX
  8
0
 10
0.250000
 20
0.103553
 30
0.000000
  0
VERTEX
  8
0
 10
0.250000
 20
-0.103553
 30
0.000000
  0
VERTEX
  8
0
 10
0.103553
 20
-0.250000
 30
0.000000
  0
VERTEX
  8
0
 10
-0.103553
 20
-0.250000
 30
0.000000
  0
VERTEX
  8
0
 10
-0.250000
 20
-0.103553
 30
0.000000
  0
VERTEX
  8
0
 10
-0.250000
 20
0.103553
 30
0.000000
  0
SEQEND
  8
0
  0
ENDBLK
  8
0
  0
BLOCK
  8
0
  2
SQUAREV
 70
64
 10
0.000000
 20
0.000000
 30
0.000000
  3
SQUAREV
  0
SOLID
  8
0
 10
-0.500000
 20
-0.500000
 30
0.000000
 11
0.500000
 21
-0.500000
 31
0.000000
 12
-0.500000
 22
0.500000
 32
0.000000
 13
0.500000
 23
0.500000
 33
0.000000
  0
ENDBLK
  8
0
  0
BLOCK
  8
0
  2
ROUNDV
 70
64
 10
0.000000
 20
0.000000
 30
0.000000
  3
ROUNDV
  0
POLYLINE
  8
0
 66
1
 10
0.000000
 20
0.000000
 30
0.000000
 40
0.500000
 41
0.500000
 70
0
  0
VERTEX
  8
0
 10
0.000000
 20
-0.250000
 30
0.000000
 42
1.000000
  0
VERTEX
  8
0
 10
0.000000
 20
0.250000
 30
0.000000
 42
1.000000
  0
VERTEX
  8
0
 10
0.000000
 20
-0.250000
 30
0.000000
  0
SEQEND
  8
0
  0
ENDBLK
  8
0
  0
BLOCK
  8
0
  2
ANNULUSV
 70
64
 10
0.000000
 20
0.000000
 30
0.000000
  3
ANNULUSV
  0
POLYLINE
  8
0
 66
1
 10
0.000000
 20
0.000000
 30
0.000000
 40
0.500000
 41
0.500000
 70
0
  0
VERTEX
  8
0
 10
0.000000
 20
-0.250000
 30
0.000000
 42
1.000000
  0
VERTEX
  8
0
 10
0.000000
 20
0.250000
 30
0.000000
 42
1.000000
  0
VERTEX
  8
0
 10
0.000000
 20
-0.250000
 30
0.000000
  0
SEQEND
  8
0
  0
ENDBLK
  8
0
  0
BLOCK
  8
0
  2
THERMALV
 70
64
 10
0.000000
 20
0.000000
 30
0.000000
  3
THERMALV
  0
POLYLINE
  8
0
 66
1
 10
0.000000
 20
0.000000
 30
0.000000
 40
0.100000
 41
0.100000
 70
0
  0
VERTEX
  8
0
 10
-0.237868
 20
0.450000
 30
0.000000
  0
VERTEX
  8
0
 10
0.237868
 20
0.450000
 30
0.000000
  0
SEQEND
  8
0
  0
POLYLINE
  8
0
 66
1
 10
0.000000
 20
0.000000
 30
0.000000
 40
0.050000
 41
0.050000
 70
0
  0
VERTEX
  8
0
 10
0.237868
 20
0.425000
 30
0.000000
 42
1.000000
  0
VERTEX
  8
0
 10
0.237868
 20
0.475000
 30
0.000000
  0
SEQEND
  8
0
  0
POLYLINE
  8
0
 66
1
 10
0.000000
 20
0.000000
 30
0.000000
 40
0.050000
 41
0.050000
 70
0
  0
VERTEX
  8
0
 10
-0.237868
 20
0.475000
 30
0.000000
 42
1.000000
  0
VERTEX
  8
0
 10
-0.237868
 20
0.425000
 30
0.000000
  0
SEQEND
  8
0
  0
POLYLINE
  8
0
 66
1
 10
0.000000
 20
0.000000
 30
0.000000
 40
0.100000
 41
0.100000
 70
0
  0
VERTEX
  8
0
 10
0.450000
 20
0.237868
 30
0.000000
  0
VERTEX
  8
0
 10
0.450000
 20
-0.237868
 30
0.000000
  0
SEQEND
  8
0
  0
POLYLINE
  8
0
 66
1
 10
0.000000
 20
0.000000
 30
0.000000
 40
0.050000
 41
0.050000
 70
0
  0
VERTEX
  8
0
 10
0.425000
 20
-0.237868
 30
0.000000
 42
1.000000
  0
VERTEX
  8
0
 10
0.475000
 20
-0.237868
 30
0.000000
  0
SEQEND
  8
0
  0
POLYLINE
  8
0
 66
1
 10
0.000000
 20
0.000000
 30
0.000000
 40
0.050000
 41
0.050000
 70
0
  0
VERTEX
  8
0
 10
0.475000
 20
0.237868
 30
0.000000
 42
1.000000
  0
VERTEX
  8
0
 10
0.425000
 20
0.237868
 30
0.000000
  0
SEQEND
  8
0
  0
POLYLINE
  8
0
 66
1
 10
0.000000
 20
0.000000
 30
0.000000
 40
0.100000
 41
0.100000
 70
0
  0
VERTEX
  8
0
 10
0.237868
 20
-0.450000
 30
0.000000
  0
VERTEX
  8
0
 10
-0.237868
 20
-0.450000
 30
0.000000
  0
SEQEND
  8
0
  0
POLYLINE
  8
0
 66
1
 10
0.000000
 20
0.000000
 30
0.000000
 40
0.050000
 41
0.050000
 70
0
  0
VERTEX
  8
0
 10
-0.237868
 20
-0.425000
 30
0.000000
 42
1.000000
  0
VERTEX
  8
0
 10
-0.237868
 20
-0.475000
 30
0.000000
  0
SEQEND
  8
0
  0
POLYLINE
  8
0
 66
1
 10
0.000000
 20
0.000000
 30
0.000000
 40
0.050000
 41
0.050000
 70
0
  0
VERTEX
  8
0
 10
0.237868
 20
-0.475000
 30
0.000000
 42
1.000000
  0
VERTEX
  8
0
 10
0.237868
 20
-0.425000
 30
0.000000
  0
SEQEND
  8
0
  0
POLYLINE
  8
0
 66
1
 10
0.000000
 20
0.000000
 30
0.000000
 40
0.100000
 41
0.100000
 70
0
  0
VERTEX
  8
0
 10
-0.450000
 20
-0.237868
 30
0.000000
  0
VERTEX
  8
0
 10
-0.450000
 20
0.237868
 30
0.000000
  0
SEQEND
  8
0
  0
POLYLINE
  8
0
 66
1
 10
0.000000
 20
0.000000
 30
0.000000
 40
0.050000
 41
0.050000
 70
0
  0
VERTEX
  8
0
 10
-0.425000
 20
0.237868
 30
0.000000
 42
1.000000
  0
VERTEX
  8
0
 10
-0.475000
 20
0.237868
 30
0.000000
  0
SEQEND
  8
0
  0
POLYLINE
  8
0
 66
1
 10
0.000000
 20
0.000000
 30
0.000000
 40
0.050000
 41
0.050000
 70
0
  0
VERTEX
  8
0
 10
-0.475000
 20
-0.237868
 30
0.000000
 42
1.000000
  0
VERTEX
  8
0
 10
-0.425000
 20
-0.237868
 30
0.000000
  0
SEQEND
  8
0
  0
ENDBLK
  8
0
  0
ENDSEC
  0
SECTION
  2
ENTITIES
  0
LINE
  8
20
 10
0.000000
 20
2.350000
 30
0.000000
 11
0.000000
 21
0.100000
 31
0.000000
  0
ARC
  8
20
 10
0.100000
 20
0.100000
 30
0.000000
 40
0.100000
 50
180.000000
 51
270.000000
  0
LINE
  8
20
 10
0.100000
 20
0.000000
 30
0.000000
 11
2.150000
 21
0.000000
 31
0.000000
  0
ARC
  8
20
 10
2.150000
 20
0.100000
 30
0.000000
 40
0.100000
 50
270.000000
 51
0.000000
  0
LINE
  8
20
 10
2.250000
 20
0.100000
 30
0.000000
 11
2.250000
 21
2.350000
 31
0.000000
  0
ARC
  8
20
 10
2.150000
 20
2.350000
 30
0.000000
 40
0.100000
 50
0.000000
 51
90.000000
  0
LINE
  8
20
 10
2.150000
 20
2.450000
 30
0.000000
 11
0.100000
 21
2.450000
 31
0.000000
  0
ARC
  8
20
 10
0.100000
 20
2.350000
 30
0.000000
 40
0.100000
 50
90.000000
 51
180.000000
  0
POLYLINE
  8
21
 66
1
 10
0.000000
 20
0.000000
 30
0.000000
 40
0.006000
 41
0.006000
 70
0
  0
VERTEX
  8
21
 10
0.122000
 20
1.078000
 30
0.000000
  0
VERTEX
  8
21
 10
0.057945
 20
1.078000
 30
0.000000
  0
SEQEND
  8
0
  0
POLYLINE
  8
21
 66
1
 10
0.000000
 20
0.000000
 30
0.000000
 40
0.003000
 41
0.003000
 70
0
  0
VERTEX
  8
21
 10
0.057945
 20
1.079500
 30
0.000000
 42
1.000000
  0
VERTEX
  8
21
 10
0.057945
 20
1.076500
 30
0.000000
  0
SEQEND
  8
0
  0
POLYLINE
  8
21
 66
1
 10
0.000000
 20
0.000000
 30
0.000000
 40
0.003000
 41
0.003000
 70
0
  0
VERTEX
  8
21
 10
0.122000
 20
1.076500
 30
0.000000
 42
1.000000
  0
VERTEX
  8
21
 10
0.122000
 20
1.079500
 30
0.000000
  0
SEQEND
  8
0
  0
POLYLINE
  8
21
 66
1
 10
0.000000
 20
0.000000
 30
0.000000
 40
0.006000
 41
0.006000
 70
0
  0
VERTEX
  8
21
 10
0.089973
 20
1.078000
 30
0.000000
  0
VERTEX
  8
21
 10
0.089973
 20
1.120703
 30
0.000000
  0
SEQEND
  8
0
  0
POLYLINE
  8
21
 66
1
 10
0.000000
 20
0.000000
 30
0.000000
 40
0.003000
 41
0.003000
 70
0
  0
VERTEX
  8
21
 10
0.091473
 20
1.120703
 30
0.000000
 42
1.000000
  0
VERTEX
  8
21
 10
0.088473
 20
1.120703
 30
0.000000
  0
SEQEND
  8
0
  0
POLYLINE
  8
21
 66
1
 10
0.000000
 20
0.000000
 30
0.000000
 40
0.003000
 41
0.003000
 70
0
  0
VERTEX
  8
21
 10
0.088473
 20
1.078000
 30
0.000000
 42
1.000000
  0
VERTEX
  8
21
 10
0.091473
 20
1.078000
 30
0.000000
  0
SEQEND
  8
0
  0
POLYLINE
  8
21
 66
1
 10
0.000000
 20
0.000000
 30
0.000000
 40
0.006000
 41
0.006000
 70
0
  0
VERTEX
  8
21
 10
0.057945
 20
1.120703
 30
0.000000
  0
VERTEX
  8
21
 10
0.122000
 20
1.120703
 30
0.000000
  0
SEQEND
  8
0
  0
POLYLINE
  8
21
 66
1
 10
0.000000
 20
0.000000
 30
0.000000
 40
0.003000
 41
0.003000
 70
0
  0
VERTEX
  8
21
 10
0.122000
 20
1.119203
 30
0.000000
 42
1.000000
  0
VERTEX
  8
21
 10
0.122000
 20
1.122203
 30
0.000000
  0
SEQEND
  8
0
  0
POLYLINE
  8
21
 66
1
 10
0.000000
 20
0.000000
 30
0.000000
 40
0.003000
 41
0.003000
 70
0
  0
VERTEX
  8
21
 10
0.057945
 20
1.122203
 30
0.000000
 42
1.000000
  0
VERTEX
  8
21
 10
0.057945
 20
1.119203
 30
0.000000
  0
SEQEND
  8
0
  0
POLYLINE
  8
21
 66
1
 10
0.000000
 20
0.000000
 30
0.000000
 40
0.006000
 41
0.006000
 70
0
  0
VERTEX
  8
21
 10
0.057945
 20
1.142455
 30
0.000000
  0
VERTEX
  8
21
 10
0.100648
 20
1.142455
 30
0.000000
  0
SEQEND
  8
0
  0
POLYLINE
  8
21
 66
1
 10
0.000000
 20
0.000000
 30
0.000000
 40
0.003000
 41
0.003000
 70
0
  0
VERTEX
  8
21
 10
0.100648
 20
1.140955
 30
0.000000
 42
1.000000
  0
VERTEX
  8
21
 10
0.100648
 20
1.143955
 30
0.000000
  0
SEQEND
  8
0
  0
POLYLINE
  8
21
 66
1
 10
0.000000
 20
0.000000
 30
0.000000
 40
0.003000
 41
0.003000
 70
0
  0
VERTEX
  8
21
 10
0.057945
 20
1.143955
 30
0.000000
 42
1.000000
  0
VERTEX
  8
21
 10
0.057945
 20
1.140955
 30
0.000000
  0
SEQEND
  8
0
  0
POLYLINE
  8
21
 66
1
 10
0.000000
 20
0.000000
 30
0.000000
 40
0.006000
 41
0.006000
 70
0
  0
VERTEX
  8
21
 10
0.100648
 20
1.142455
 30
0.000000
  0
VERTEX
  8
21
 10
0.122000
 20
1.163806
 30
0.000000
  0
SEQEND
  8
0
  0
POLYLINE
  8
21
 66
1
 10
0.000000
 20
0.000000
 30
0.000000
 40
0.003000
 41
0.003000
 70
0
  0
VERTEX
  8
21
 10
0.123061
 20
1.162746
 30
0.000000
 42
1.000000
  0
VERTEX
  8
21
 10
0.120939
 20
1.164867
 30
0.000000
  0
SEQEND
  8
0
  0
POLYLINE
  8
21
 66
1
 10
0.000000
 20
0.000000
 30
0.000000
 40
0.003000
 41
0.003000
 70
0
  0
VERTEX
  8
21
 10
0.099588
 20
1.143516
 30
0.000000
 42
1.000000
  0
VERTEX
  8
21
 10
0.101709
 20
1.141394
 30
0.000000
  0
SEQEND
  8
0
  0
POLYLINE
  8
21
 66
1
 10
0.000000
 20
0.000000
 30
0.000000
 40
0.006000
 41
0.006000
 70
0
  0
VERTEX
  8
21
 10
0.122000
 20
1.163806
 30
0.000000
  0
VERTEX
  8
21
 10
0.100648
 20
1.185158
 30
0.000000
  0
SEQEND
  8
0
  0
POLYLINE
  8
21
 66
1
 10
0.000000
 20
0.000000
 30
0.000000
 40
0.003000
 41
0.003000
 70
0
  0
VERTEX
  8
21
 10
0.101709
 20
1.186219
 30
0.000000
 42
1.000000
  0
VERTEX
  8
21
 10
0.099588
 20
1.184097
 30
0.000000
  0
SEQEND
  8
0
  0
POLYLINE
  8
21
 66
1
 10
0.000000
 20
0.000000
 30
0.000000
 40
0.003000
 41
0.003000
 70
0
  0
VERTEX
  8
21
 10
0.120939
 20
1.162746
 30
0.000000
 42
1.000000
  0
VERTEX
  8
21
 10
0.123061
 20
1.164867
 30
0.000000
  0
SEQEND
  8
0
  0
POLYLINE
  8
21
 66
1
 10
0.000000
 20
0.000000
 30
0.000000
 40
0.006000
 41
0.006000
 70
0
  0
VERTEX
  8
21
 10
0.100648
 20
1.185158
 30
0.000000
  0
VERTEX
  8
21
 10
0.057945
 20
1.185158
 30
0.000000
  0
SEQEND
  8
0
  0
POLYLINE
  8
21
 66
1
 10
0.000000
 20
0.000000
 30
0.000000
 40
0.003000
 41
0.003000
 70
0
  0
VERTEX
  8
21
 10
0.057945
 20
1.186658
 30
0.000000
 42
1.000000
  0
VERTEX
  8
21
 10
0.057945
 20
1.183658
 30
0.000000
  0
SEQEND
  8
0
  0
POLYLINE
  8
21
 66
1
 10
0.000000
 20
0.000000
 30
0.000000
 40
0.003000
 41
0.003000
 70
0
  0
VERTEX
  8
21
 10
0.100648
 20
1.183658
 30
0.000000
 42
1.000000
  0
VERTEX
  8
21
 10
0.100648
 20
1.186658
 30
0.000000
  0
SEQEND
  8
0
  0
POLYLINE
  8
21
 66
1
 10
0.000000
 20
0.000000
 30
0.000000
 40
0.006000
 41
0.006000
 70
0
  0
VERTEX
  8
21
 10
2.082945
 20
1.053000
 30
0.000000
  0
VERTEX
  8
21
 10
2.147000
 20
1.053000
 30
0.000000
  0
SEQEND
  8
0
  0
POLYLINE
  8
21
 66
1
 10
0.000000
 20
0.000000
 30
0.000000
 40
0.003000
 41
0.003000
 70
0
  0
VERTEX
  8
21
 10
2.147000
 20
1.051500
 30
0.000000
 42
1.000000
  0
VERTEX
  8
21
 10
2.147000
 20
1.054500
 30
0.000000
  0
SEQEND
  8
0
  0
POLYLINE
  8
21
 66
1
 10
0.000000
 20
0.000000
 30
0.000000
 40
0.003000
 41
0.003000
 70
0
  0
VERTEX
  8
21
 10
2.082945
 20
1.054500
 30
0.000000
 42
1.000000
  0
VERTEX
  8
21
 10
2.082945
 20
1.051500
 30
0.000000
  0
SEQEND
  8
0
  0
POLYLINE
  8
21
 66
1
 10
0.000000
 20
0.000000
 30
0.000000
 40
0.006000
 41
0.006000
 70
0
  0
VERTEX
  8
21
 10
2.147000
 20
1.053000
 30
0.000000
  0
VERTEX
  8
21
 10
2.147000
 20
1.095703
 30
0.000000
  0
SEQEND
  8
0
  0
POLYLINE
  8
21
 66
1
 10
0.000000
 20
0.000000
 30
0.000000
 40
0.003000
 41
0.003000
 70
0
  0
VERTEX
  8
21
 10
2.148500
 20
1.095703
 30
0.000000
 42
1.000000
  0
VERTEX
  8
21
 10
2.145500
 20
1.095703
 30
0.000000
  0
SEQEND
  8
0
  0
POLYLINE
  8
21
 66
1
 10
0.000000
 20
0.000000
 30
0.000000
 40
0.003000
 41
0.003000
 70
0
  0
VERTEX
  8
21
 10
2.145500
 20
1.053000
 30
0.000000
 42
1.000000
  0
VERTEX
  8
21
 10
2.148500
 20
1.053000
 30
0.000000
  0
SEQEND
  8
0
  0
POLYLINE
  8
21
 66
1
 10
0.000000
 20
0.000000
 30
0.000000
 40
0.006000
 41
0.006000
 70
0
  0
VERTEX
  8
21
 10
2.082945
 20
1.117455
 30
0.000000
  0
VERTEX
  8
21
 10
2.125648
 20
1.117455
 30
0.000000
  0
SEQEND
  8
0
  0
POLYLINE
  8
21
 66
1
 10
0.000000
 20
0.000000
 30
0.000000
 40
0.003000
 41
0.003000
 70
0
  0
VERTEX
  8
21
 10
2.125648
 20
1.115955
 30
0.000000
 42
1.000000
  0
VERTEX
  8
21
 10
2.125648
 20
1.118955
 30
0.000000
  0
SEQEND
  8
0
  0
POLYLINE
  8
21
 66
1
 10
0.000000
 20
0.000000
 30
0.000000
 40
0.003000
 41
0.003000
 70
0
  0
VERTEX
  8
21
 10
2.082945
 20
1.118955
 30
0.000000
 42
1.000000
  0
VERTEX
  8
21
 10
2.082945
 20
1.115955
 30
0.000000
  0
SEQEND
  8
0
  0
POLYLINE
  8
21
 66
1
 10
0.000000
 20
0.000000
 30
0.000000
 40
0.006000
 41
0.006000
 70
0
  0
VERTEX
  8
21
 10
2.125648
 20
1.117455
 30
0.000000
  0
VERTEX
  8
21
 10
2.147000
 20
1.138806
 30
0.000000
  0
SEQEND
  8
0
  0
POLYLINE
  8
21
 66
1
 10
0.000000
 20
0.000000
 30
0.000000
 40
0.003000
 41
0.003000
 70
0
  0
VERTEX
  8
21
 10
2.148061
 20
1.137746
 30
0.000000
 42
1.000000
  0
VERTEX
  8
21
 10
2.145939
 20
1.139867
 30
0.000000
  0
SEQEND
  8
0
  0
POLYLINE
  8
21
 66
1
 10
0.000000
 20
0.000000
 30
0.000000
 40
0.003000
 41
0.003000
 70
0
  0
VERTEX
  8
21
 10
2.124588
 20
1.118516
 30
0.000000
 42
1.000000
  0
VERTEX
  8
21
 10
2.126709
 20
1.116394
 30
0.000000
  0
SEQEND
  8
0
  0
POLYLINE
  8
21
 66
1
 10
0.000000
 20
0.000000
 30
0.000000
 40
0.006000
 41
0.006000
 70
0
  0
VERTEX
  8
21
 10
2.147000
 20
1.138806
 30
0.000000
  0
VERTEX
  8
21
 10
2.125648
 20
1.160158
 30
0.000000
  0
SEQEND
  8
0
  0
POLYLINE
  8
21
 66
1
 10
0.000000
 20
0.000000
 30
0.000000
 40
0.003000
 41
0.003000
 70
0
  0
VERTEX
  8
21
 10
2.126709
 20
1.161219
 30
0.000000
 42
1.000000
  0
VERTEX
  8
21
 10
2.124588
 20
1.159097
 30
0.000000
  0
SEQEND
  8
0
  0
POLYLINE
  8
21
 66
1
 10
0.000000
 20
0.000000
 30
0.000000
 40
0.003000
 41
0.003000
 70
0
  0
VERTEX
  8
21
 10
2.145939
 20
1.137746
 30
0.000000
 42
1.000000
  0
VERTEX
  8
21
 10
2.148061
 20
1.139867
 30
0.000000
  0
SEQEND
  8
0
  0
POLYLINE
  8
21
 66
1
 10
0.000000
 20
0.000000
 30
0.000000
 40
0.006000
 41
0.006000
 70
0
  0
VERTEX
  8
21
 10
2.125648
 20
1.160158
 30
0.000000
  0
VERTEX
  8
21
 10
2.082945
 20
1.160158
 30
0.000000
  0
SEQEND
  8
0
  0
POLYLINE
  8
21
 66
1
 10
0.000000
 20
0.000000
 30
0.000000
 40
0.003000
 41
0.003000
 70
0
  0
VERTEX
  8
21
 10
2.082945
 20
1.161658
 30
0.000000
 42
1.000000
  0
VERTEX
  8
21
 10
2.082945
 20
1.158658
 30
0.000000
  0
SEQEND
  8
0
  0
POLYLINE
  8
21
 66
1
 10
0.000000
 20
0.000000
 30
0.000000
 40
0.003000
 41
0.003000
 70
0
  0
VERTEX
  8
21
 10
2.125648
 20
1.158658
 30
0.000000
 42
1.000000
  0
VERTEX
  8
21
 10
2.125648
 20
1.161658
 30
0.000000
  0
SEQEND
  8
0
  0
CIRCLE
  8
20
 10
0.125000
 20
2.325000
 30
0.000000
 40
0.062500
  0
CIRCLE
  8
20
 10
2.125000
 20
2.325000
 30
0.000000
 40
0.062500
  0
CIRCLE
  8
20
 10
2.125000
 20
0.125000
 30
0.000000
 40
0.062500
  0
CIRCLE
  8
20
 10
0.125000
 20
0.125000
 30
0.000000
 40
0.062500
  0
POINT
  8
23
 10
0.100000
 20
0.700000
 30
0.000000
  0
POLYLINE
  8
21
 66
1
 10
0.000000
 20
0.000000
 30
0.000000
 40
0.008000
 41
0.008000
 70
0
  0
VERTEX
  8
21
 10
0.150000
 20
0.725000
 30
0.000000
  0
VERTEX
  8
21
 10
0.150000
 20
0.675000
 30
0.000000
  0
SEQEND
  8
0
  0
POLYLINE
  8
21
 66
1
 10
0.000000
 20
0.000000
 30
0.000000
 40
0.004000
 41
0.004000
 70
0
  0
VERTEX
  8
21
 10
0.148000
 20
0.675000
 30
0.000000
 42
1.000000
  0
VERTEX
  8
21
 10
0.152000
 20
0.675000
 30
0.000000
  0
SEQEND
  8
0
  0
POLYLINE
  8
21
 66
1
 10
0.000000
 20
0.000000
 30
0.000000
 40
0.004000
 41
0.004000
 70
0
  0
VERTEX
  8
21
 10
0.152000
 20
0.725000
 30
0.000000
 42
1.000000
  0
VERTEX
  8
21
 10
0.148000
 20
0.725000
 30
0.000000
  0
SEQEND
  8
0
  0
POLYLINE
  8
21
 66
1
 10
0.000000
 20
0.000000
 30
0.000000
 40
0.008000
 41
0.008000
 70
0
  0
VERTEX
  8
21
 10
0.150000
 20
0.675000
 30
0.000000
  0
VERTEX
  8
21
 10
0.125000
 20
0.650000
 30
0.000000
  0
SEQEND
  8
0
  0
POLYLINE
  8
21
 66
1
 10
0.000000
 20
0.000000
 30
0.000000
 40
0.004000
 41
0.004000
 70
0
  0
VERTEX
  8
21
 10
0.123586
 20
0.651414
 30
0.000000
 42
1.000000
  0
VERTEX
  8
21
 10
0.126414
 20
0.648586
 30
0.000000
  0
SEQEND
  8
0
  0
POLYLINE
  8
21
 66
1
 10
0.000000
 20
0.000000
 30
0.000000
 40
0.004000
 41
0.004000
 70
0
  0
VERTEX
  8
21
 10
0.151414
 20
0.673586
 30
0.000000
 42
1.000000
  0
VERTEX
  8
21
 10
0.148586
 20
0.676414
 30
0.000000
  0
SEQEND
  8
0
  0
POLYLINE
  8
21
 66
1
 10
0.000000
 20
0.000000
 30
0.000000
 40
0.008000
 41
0.008000
 70
0
  0
VERTEX
  8
21
 10
0.075000
 20
0.650000
 30
0.000000
  0
VERTEX
  8
21
 10
0.050000
 20
0.675000
 30
0.000000
  0
SEQEND
  8
0
  0
POLYLINE
  8
21
 66
1
 10
0.000000
 20
0.000000
 30
0.000000
 40
0.004000
 41
0.004000
 70
0
  0
VERTEX
  8
21
 10
0.051414
 20
0.676414
 30
0.000000
 42
1.000000
  0
VERTEX
  8
21
 10
0.048586
 20
0.673586
 30
0.000000
  0
SEQEND
  8
0
  0
POLYLINE
  8
21
 66
1
 10
0.000000
 20
0.000000
 30
0.000000
 40
0.004000
 41
0.004000
 70
0
  0
VERTEX
  8
21
 10
0.073586
 20
0.648586
 30
0.000000
 42
1.000000
  0
VERTEX
  8
21
 10
0.076414
 20
0.651414
 30
0.000000
  0
SEQEND
  8
0
  0
POLYLINE
  8
21
 66
1
 10
0.000000
 20
0.000000
 30
0.000000
 40
0.008000
 41
0.008000
 70
0
  0
VERTEX
  8
21
 10
0.125000
 20
0.650000
 30
0.000000
  0
VERTEX
  8
21
 10
0.150000
 20
0.625000
 30
0.000000
  0
SEQEND
  8
0
  0
POLYLINE
  8
21
 66
1
 10
0.000000
 20
0.000000
 30
0.000000
 40
0.004000
 41
0.004000
 70
0
  0
VERTEX
  8
21
 10
0.148586
 20
0.623586
 30
0.000000
 42
1.000000
  0
VERTEX
  8
21
 10
0.151414
 20
0.626414
 30
0.000000
  0
SEQEND
  8
0
  0
POLYLINE
  8
21
 66
1
 10
0.000000
 20
0.000000
 30
0.000000
 40
0.004000
 41
0.004000
 70
0
  0
VERTEX
  8
21
 10
0.126414
 20
0.651414
 30
0.000000
 42
1.000000
  0
VERTEX
  8
21
 10
0.123586
 20
0.648586
 30
0.000000
  0
SEQEND
  8
0
  0
POLYLINE
  8
21
 66
1
 10
0.000000
 20
0.000000
 30
0.000000
 40
0.008000
 41
0.008000
 70
0
  0
VERTEX
  8
21
 10
0.150000
 20
0.625000
 30
0.000000
  0
VERTEX
  8
21
 10
0.150000
 20
0.575000
 30
0.000000
  0
SEQEND
  8
0
  0
POLYLINE
  8
21
 66
1
 10
0.000000
 20
0.000000
 30
0.000000
 40
0.004000
 41
0.004000
 70
0
  0
VERTEX
  8
21
 10
0.148000
 20
0.575000
 30
0.000000
 42
1.000000
  0
VERTEX
  8
21
 10
0.152000
 20
0.575000
 30
0.000000
  0
SEQEND
  8
0
  0
POLYLINE
  8
21
 66
1
 10
0.000000
 20
0.000000
 30
0.000000
 40
0.004000
 41
0.004000
 70
0
  0
VERTEX
  8
21
 10
0.152000
 20
0.625000
 30
0.000000
 42
1.000000
  0
VERTEX
  8
21
 10
0.148000
 20
0.625000
 30
0.000000
  0
SEQEND
  8
0
  0
POLYLINE
  8
21
 66
1
 10
0.000000
 20
0.000000
 30
0.000000
 40
0.008000
 41
0.008000
 70
0
  0
VERTEX
  8
21
 10
0.150000
 20
0.575000
 30
0.000000
  0
VERTEX
  8
21
 10
0.125000
 20
0.550000
 30
0.000000
  0
SEQEND
  8
0
  0
POLYLINE
  8
21
 66
1
 10
0.000000
 20
0.000000
 30
0.000000
 40
0.004000
 41
0.004000
 70
0
  0
VERTEX
  8
21
 10
0.123586
 20
0.551414
 30
0.000000
 42
1.000000
  0
VERTEX
  8
21
 10
0.126414
 20
0.548586
 30
0.000000
  0
SEQEND
  8
0
  0
POLYLINE
  8
21
 66
1
 10
0.000000
 20
0.000000
 30
0.000000
 40
0.004000
 41
0.004000
 70
0
  0
VERTEX
  8
21
 10
0.151414
 20
0.573586
 30
0.000000
 42
1.000000
  0
VERTEX
  8
21
 10
0.148586
 20
0.576414
 30
0.000000
  0
SEQEND
  8
0
  0
POLYLINE
  8
21
 66
1
 10
0.000000
 20
0.000000
 30
0.000000
 40
0.008000
 41
0.008000
 70
0
  0
VERTEX
  8
21
 10
0.075000
 20
0.550000
 30
0.000000
  0
VERTEX
  8
21
 10
0.050000
 20
0.575000
 30
0.000000
  0
SEQEND
  8
0
  0
POLYLINE
  8
21
 66
1
 10
0.000000
 20
0.000000
 30
0.000000
 40
0.004000
 41
0.004000
 70
0
  0
VERTEX
  8
21
 10
0.051414
 20
0.576414
 30
0.000000
 42
1.000000
  0
VERTEX
  8
21
 10
0.048586
 20
0.573586
 30
0.000000
  0
SEQEND
  8
0
  0
POLYLINE
  8
21
 66
1
 10
0.000000
 20
0.000000
 30
0.000000
 40
0.004000
 41
0.004000
 70
0
  0
VERTEX
  8
21
 10
0.073586
 20
0.548586
 30
0.000000
 42
1.000000
  0
VERTEX
  8
21
 10
0.076414
 20
0.551414
 30
0.000000
  0
SEQEND
  8
0
  0
POLYLINE
  8
21
 66
1
 10
0.000000
 20
0.000000
 30
0.000000
 40
0.008000
 41
0.008000
 70
0
  0
VERTEX
  8
21
 10
0.050000
 20
0.575000
 30
0.000000
  0
VERTEX
  8
21
 10
0.050000
 20
0.625000
 30
0.000000
  0
SEQEND
  8
0
  0
POLYLINE
  8
21
 66
1
 10
0.000000
 20
0.000000
 30
0.000000
 40
0.004000
 41
0.004000
 70
0
  0
VERTEX
  8
21
 10
0.052000
 20
0.625000
 30
0.000000
 42
1.000000
  0
VERTEX
  8
21
 10
0.048000
 20
0.625000
 30
0.000000
  0
SEQEND
  8
0
  0
POLYLINE
  8
21
 66
1
 10
0.000000
 20
0.000000
 30
0.000000
 40
0.004000
 41
0.004000
 70
0
  0
VERTEX
  8
21
 10
0.048000
 20
0.575000
 30
0.000000
 42
1.000000
  0
VERTEX
  8
21
 10
0.052000
 20
0.575000
 30
0.000000
  0
SEQEND
  8
0
  0
POLYLINE
  8
21
 66
1
 10
0.000000
 20
0.000000
 30
0.000000
 40
0.008000
 41
0.008000
 70
0
  0
VERTEX
  8
21
 10
0.050000
 20
0.625000
 30
0.000000
  0
VERTEX
  8
21
 10
0.075000
 20
0.650000
 30
0.000000
  0
SEQEND
  8
0
  0
POLYLINE
  8
21
 66
1
 10
0.000000
 20
0.000000
 30
0.000000
 40
0.004000
 41
0.004000
 70
0
  0
VERTEX
  8
21
 10
0.076414
 20
0.648586
 30
0.000000
 42
1.000000
  0
VERTEX
  8
21
 10
0.073586
 20
0.651414
 30
0.000000
  0
SEQEND
  8
0
  0
POLYLINE
  8
21
 66
1
 10
0.000000
 20
0.000000
 30
0.000000
 40
0.004000
 41
0.004000
 70
0
  0
VERTEX
  8
21
 10
0.048586
 20
0.626414
 30
0.000000
 42
1.000000
  0
VERTEX
  8
21
 10
0.051414
 20
0.623586
 30
0.000000
  0
SEQEND
  8
0
  0
POLYLINE
  8
21
 66
1
 10
0.000000
 20
0.000000
 30
0.000000
 40
0.008000
 41
0.008000
 70
0
  0
VERTEX
  8
21
 10
0.125000
 20
0.750000
 30
0.000000
  0
VERTEX
  8
21
 10
0.075000
 20
0.750000
 30
0.000000
  0
SEQEND
  8
0
  0
POLYLINE
  8
21
 66
1
 10
0.000000
 20
0.000000
 30
0.000000
 40
0.004000
 41
0.004000
 70
0
  0
VERTEX
  8
21
 10
0.075000
 20
0.752000
 30
0.000000
 42
1.000000
  0
VERTEX
  8
21
 10
0.075000
 20
0.748000
 30
0.000000
  0
SEQEND
  8
0
  0
POLYLINE
  8
21
 66
1
 10
0.000000
 20
0.000000
 30
0.000000
 40
0.004000
 41
0.004000
 70
0
  0
VERTEX
  8
21
 10
0.125000
 20
0.748000
 30
0.000000
 42
1.000000
  0
VERTEX
  8
21
 10
0.125000
 20
0.752000
 30
0.000000
  0
SEQEND
  8
0
  0
POLYLINE
  8
21
 66
1
 10
0.000000
 20
0.000000
 30
0.000000
 40
0.008000
 41
0.008000
 70
0
  0
VERTEX
  8
21
 10
0.150000
 20
0.725000
 30
0.000000
  0
VERTEX
  8
21
 10
0.125000
 20
0.750000
 30
0.000000
  0
SEQEND
  8
0
  0
POLYLINE
  8
21
 66
1
 10
0.000000
 20
0.000000
 30
0.000000
 40
0.004000
 41
0.004000
 70
0
  0
VERTEX
  8
21
 10
0.126414
 20
0.751414
 30
0.000000
 42
1.000000
  0
VERTEX
  8
21
 10
0.123586
 20
0.748586
 30
0.000000
  0
SEQEND
  8
0
  0
POLYLINE
  8
21
 66
1
 10
0.000000
 20
0.000000
 30
0.000000
 40
0.004000
 41
0.004000
 70
0
  0
VERTEX
  8
21
 10
0.148586
 20
0.723586
 30
0.000000
 42
1.000000
  0
VERTEX
  8
21
 10
0.151414
 20
0.726414
 30
0.000000
  0
SEQEND
  8
0
  0
POLYLINE
  8
21
 66
1
 10
0.000000
 20
0.000000
 30
0.000000
 40
0.008000
 41
0.008000
 70
0
  0
VERTEX
  8
21
 10
0.075000
 20
0.750000
 30
0.000000
  0
VERTEX
  8
21
 10
0.050000
 20
0.725000
 30
0.000000
  0
SEQEND
  8
0
  0
POLYLINE
  8
21
 66
1
 10
0.000000
 20
0.000000
 30
0.000000
 40
0.004000
 41
0.004000
 70
0
  0
VERTEX
  8
21
 10
0.048586
 20
0.726414
 30
0.000000
 42
1.000000
  0
VERTEX
  8
21
 10
0.051414
 20
0.723586
 30
0.000000
  0
SEQEND
  8
0
  0
POLYLINE
  8
21
 66
1
 10
0.000000
 20
0.000000
 30
0.000000
 40
0.004000
 41
0.004000
 70
0
  0
VERTEX
  8
21
 10
0.076414
 20
0.748586
 30
0.000000
 42
1.000000
  0
VERTEX
  8
21
 10
0.073586
 20
0.751414
 30
0.000000
  0
SEQEND
  8
0
  0
POLYLINE
  8
21
 66
1
 10
0.000000
 20
0.000000
 30
0.000000
 40
0.008000
 41
0.008000
 70
0
  0
VERTEX
  8
21
 10
0.050000
 20
0.675000
 30
0.000000
  0
VERTEX
  8
21
 10
0.050000
 20
0.725000
 30
0.000000
  0
SEQEND
  8
0
  0
POLYLINE
  8
21
 66
1
 10
0.000000
 20
0.000000
 30
0.000000
 40
0.004000
 41
0.004000
 70
0
  0
VERTEX
  8
21
 10
0.052000
 20
0.725000
 30
0.000000
 42
1.000000
  0
VERTEX
  8
21
 10
0.048000
 20
0.725000
 30
0.000000
  0
SEQEND
  8
0
  0
POLYLINE
  8
21
 66
1
 10
0.000000
 20
0.000000
 30
0.000000
 40
0.004000
 41
0.004000
 70
0
  0
VERTEX
  8
21
 10
0.048000
 20
0.675000
 30
0.000000
 42
1.000000
  0
VERTEX
  8
21
 10
0.052000
 20
0.675000
 30
0.000000
  0
SEQEND
  8
0
  0
POLYLINE
  8
21
 66
1
 10
0.000000
 20
0.000000
 30
0.000000
 40
0.008000
 41
0.008000
 70
0
  0
VERTEX
  8
21
 10
0.125000
 20
0.550000
 30
0.000000
  0
VERTEX
  8
21
 10
0.075000
 20
0.550000
 30
0.000000
  0
SEQEND
  8
0
  0
POLYLINE
  8
21
 66
1
 10
0.000000
 20
0.000000
 30
0.000000
 40
0.004000
 41
0.004000
 70
0
  0
VERTEX
  8
21
 10
0.075000
 20
0.552000
 30
0.000000
 42
1.000000
  0
VERTEX
  8
21
 10
0.075000
 20
0.548000
 30
0.000000
  0
SEQEND
  8
0
  0
POLYLINE
  8
21
 66
1
 10
0.000000
 20
0.000000
 30
0.000000
 40
0.004000
 41
0.004000
 70
0
  0
VERTEX
  8
21
 10
0.125000
 20
0.548000
 30
0.000000
 42
1.000000
  0
VERTEX
  8
21
 10
0.125000
 20
0.552000
 30
0.000000
  0
SEQEND
  8
0
  0
POLYLINE
  8
25
 66
1
 10
0.000000
 20
0.000000
 30
0.000000
 40
0.005000
 41
0.005000
 70
0
  0
VERTEX
  8
25
 10
0.211994
 20
0.617382
 30
0.000000
  0
VERTEX
  8
25
 10
0.219500
 20
0.624888
 30
0.000000
  0
SEQEND
  8
0
  0
POLYLINE
  8
25
 66
1
 10
0.000000
 20
0.000000
 30
0.000000
 40
0.002500
 41
0.002500
 70
0
  0
VERTEX
  8
25
 10
0.220384
 20
0.624005
 30
0.000000
 42
1.000000
  0
VERTEX
  8
25
 10
0.218616
 20
0.625772
 30
0.000000
  0
SEQEND
  8
0
  0
POLYLINE
  8
25
 66
1
 10
0.000000
 20
0.000000
 30
0.000000
 40
0.002500
 41
0.002500
 70
0
  0
VERTEX
  8
25
 10
0.211110
 20
0.618266
 30
0.000000
 42
1.000000
  0
VERTEX
  8
25
 10
0.212877
 20
0.616498
 30
0.000000
  0
SEQEND
  8
0
  0
POLYLINE
  8
25
 66
1
 10
0.000000
 20
0.000000
 30
0.000000
 40
0.005000
 41
0.005000
 70
0
  0
VERTEX
  8
25
 10
0.219500
 20
0.624888
 30
0.000000
  0
VERTEX
  8
25
 10
0.219500
 20
0.632395
 30
0.000000
  0
SEQEND
  8
0
  0
POLYLINE
  8
25
 66
1
 10
0.000000
 20
0.000000
 30
0.000000
 40
0.002500
 41
0.002500
 70
0
  0
VERTEX
  8
25
 10
0.220750
 20
0.632395
 30
0.000000
 42
1.000000
  0
VERTEX
  8
25
 10
0.218250
 20
0.632395
 30
0.000000
  0
SEQEND
  8
0
  0
POLYLINE
  8
25
 66
1
 10
0.000000
 20
0.000000
 30
0.000000
 40
0.002500
 41
0.002500
 70
0
  0
VERTEX
  8
25
 10
0.218250
 20
0.624888
 30
0.000000
 42
1.000000
  0
VERTEX
  8
25
 10
0.220750
 20
0.624888
 30
0.000000
  0
SEQEND
  8
0
  0
POLYLINE
  8
25
 66
1
 10
0.000000
 20
0.000000
 30
0.000000
 40
0.005000
 41
0.005000
 70
0
  0
VERTEX
  8
25
 10
0.219500
 20
0.632395
 30
0.000000
  0
VERTEX
  8
25
 10
0.211994
 20
0.639901
 30
0.000000
  0
SEQEND
  8
0
  0
POLYLINE
  8
25
 66
1
 10
0.000000
 20
0.000000
 30
0.000000
 40
0.002500
 41
0.002500
 70
0
  0
VERTEX
  8
25
 10
0.212877
 20
0.640785
 30
0.000000
 42
1.000000
  0
VERTEX
  8
25
 10
0.211110
 20
0.639017
 30
0.000000
  0
SEQEND
  8
0
  0
POLYLINE
  8
25
 66
1
 10
0.000000
 20
0.000000
 30
0.000000
 40
0.002500
 41
0.002500
 70
0
  0
VERTEX
  8
25
 10
0.218616
 20
0.631511
 30
0.000000
 42
1.000000
  0
VERTEX
  8
25
 10
0.220384
 20
0.633279
 30
0.000000
  0
SEQEND
  8
0
  0
POLYLINE
  8
25
 66
1
 10
0.000000
 20
0.000000
 30
0.000000
 40
0.005000
 41
0.005000
 70
0
  0
VERTEX
  8
25
 10
0.211994
 20
0.639901
 30
0.000000
  0
VERTEX
  8
25
 10
0.174462
 20
0.639901
 30
0.000000
  0
SEQEND
  8
0
  0
POLYLINE
  8
25
 66
1
 10
0.000000
 20
0.000000
 30
0.000000
 40
0.002500
 41
0.002500
 70
0
  0
VERTEX
  8
25
 10
0.174462
 20
0.641151
 30
0.000000
 42
1.000000
  0
VERTEX
  8
25
 10
0.174462
 20
0.638651
 30
0.000000
  0
SEQEND
  8
0
  0
POLYLINE
  8
25
 66
1
 10
0.000000
 20
0.000000
 30
0.000000
 40
0.002500
 41
0.002500
 70
0
  0
VERTEX
  8
25
 10
0.211994
 20
0.638651
 30
0.000000
 42
1.000000
  0
VERTEX
  8
25
 10
0.211994
 20
0.641151
 30
0.000000
  0
SEQEND
  8
0
  0
POLYLINE
  8
25
 66
1
 10
0.000000
 20
0.000000
 30
0.000000
 40
0.005000
 41
0.005000
 70
0
  0
VERTEX
  8
25
 10
0.174462
 20
0.632395
 30
0.000000
  0
VERTEX
  8
25
 10
0.174462
 20
0.647408
 30
0.000000
  0
SEQEND
  8
0
  0
POLYLINE
  8
25
 66
1
 10
0.000000
 20
0.000000
 30
0.000000
 40
0.002500
 41
0.002500
 70
0
  0
VERTEX
  8
25
 10
0.175712
 20
0.647408
 30
0.000000
 42
1.000000
  0
VERTEX
  8
25
 10
0.173212
 20
0.647408
 30
0.000000
  0
SEQEND
  8
0
  0
POLYLINE
  8
25
 66
1
 10
0.000000
 20
0.000000
 30
0.000000
 40
0.002500
 41
0.002500
 70
0
  0
VERTEX
  8
25
 10
0.173212
 20
0.632395
 30
0.000000
 42
1.000000
  0
VERTEX
  8
25
 10
0.175712
 20
0.632395
 30
0.000000
  0
SEQEND
  8
0
  0
POLYLINE
  8
25
 66
1
 10
0.000000
 20
0.000000
 30
0.000000
 40
0.005000
 41
0.005000
 70
0
  0
VERTEX
  8
25
 10
0.219500
 20
0.663421
 30
0.000000
  0
VERTEX
  8
25
 10
0.174462
 20
0.663421
 30
0.000000
  0
SEQEND
  8
0
  0
POLYLINE
  8
25
 66
1
 10
0.000000
 20
0.000000
 30
0.000000
 40
0.002500
 41
0.002500
 70
0
  0
VERTEX
  8
25
 10
0.174462
 20
0.664671
 30
0.000000
 42
1.000000
  0
VERTEX
  8
25
 10
0.174462
 20
0.662171
 30
0.000000
  0
SEQEND
  8
0
  0
POLYLINE
  8
25
 66
1
 10
0.000000
 20
0.000000
 30
0.000000
 40
0.002500
 41
0.002500
 70
0
  0
VERTEX
  8
25
 10
0.219500
 20
0.662171
 30
0.000000
 42
1.000000
  0
VERTEX
  8
25
 10
0.219500
 20
0.664671
 30
0.000000
  0
SEQEND
  8
0
  0
POLYLINE
  8
25
 66
1
 10
0.000000
 20
0.000000
 30
0.000000
 40
0.005000
 41
0.005000
 70
0
  0
VERTEX
  8
25
 10
0.174462
 20
0.663421
 30
0.000000
  0
VERTEX
  8
25
 10
0.174462
 20
0.685940
 30
0.000000
  0
SEQEND
  8
0
  0
POLYLINE
  8
25
 66
1
 10
0.000000
 20
0.000000
 30
0.000000
 40
0.002500
 41
0.002500
 70
0
  0
VERTEX
  8
25
 10
0.175712
 20
0.685940
 30
0.000000
 42
1.000000
  0
VERTEX
  8
25
 10
0.173212
 20
0.685940
 30
0.000000
  0
SEQEND
  8
0
  0
POLYLINE
  8
25
 66
1
 10
0.000000
 20
0.000000
 30
0.000000
 40
0.002500
 41
0.002500
 70
0
  0
VERTEX
  8
25
 10
0.173212
 20
0.663421
 30
0.000000
 42
1.000000
  0
VERTEX
  8
25
 10
0.175712
 20
0.663421
 30
0.000000
  0
SEQEND
  8
0
  0
POLYLINE
  8
25
 66
1
 10
0.000000
 20
0.000000
 30
0.000000
 40
0.005000
 41
0.005000
 70
0
  0
VERTEX
  8
25
 10
0.174462
 20
0.685940
 30
0.000000
  0
VERTEX
  8
25
 10
0.181968
 20
0.693447
 30
0.000000
  0
SEQEND
  8
0
  0
POLYLINE
  8
25
 66
1
 10
0.000000
 20
0.000000
 30
0.000000
 40
0.002500
 41
0.002500
 70
0
  0
VERTEX
  8
25
 10
0.182852
 20
0.692563
 30
0.000000
 42
1.000000
  0
VERTEX
  8
25
 10
0.181084
 20
0.694331
 30
0.000000
  0
SEQEND
  8
0
  0
POLYLINE
  8
25
 66
1
 10
0.000000
 20
0.000000
 30
0.000000
 40
0.002500
 41
0.002500
 70
0
  0
VERTEX
  8
25
 10
0.173578
 20
0.686824
 30
0.000000
 42
1.000000
  0
VERTEX
  8
25
 10
0.175345
 20
0.685057
 30
0.000000
  0
SEQEND
  8
0
  0
POLYLINE
  8
25
 66
1
 10
0.000000
 20
0.000000
 30
0.000000
 40
0.005000
 41
0.005000
 70
0
  0
VERTEX
  8
25
 10
0.181968
 20
0.693447
 30
0.000000
  0
VERTEX
  8
25
 10
0.196981
 20
0.693447
 30
0.000000
  0
SEQEND
  8
0
  0
POLYLINE
  8
25
 66
1
 10
0.000000
 20
0.000000
 30
0.000000
 40
0.002500
 41
0.002500
 70
0
  0
VERTEX
  8
25
 10
0.196981
 20
0.692197
 30
0.000000
 42
1.000000
  0
VERTEX
  8
25
 10
0.196981
 20
0.694697
 30
0.000000
  0
SEQEND
  8
0
  0
POLYLINE
  8
25
 66
1
 10
0.000000
 20
0.000000
 30
0.000000
 40
0.002500
 41
0.002500
 70
0
  0
VERTEX
  8
25
 10
0.181968
 20
0.694697
 30
0.000000
 42
1.000000
  0
VERTEX
  8
25
 10
0.181968
 20
0.692197
 30
0.000000
  0
SEQEND
  8
0
  0
POLYLINE
  8
25
 66
1
 10
0.000000
 20
0.000000
 30
0.000000
 40
0.005000
 41
0.005000
 70
0
  0
VERTEX
  8
25
 10
0.196981
 20
0.693447
 30
0.000000
  0
VERTEX
  8
25
 10
0.204487
 20
0.685940
 30
0.000000
  0
SEQEND
  8
0
  0
POLYLINE
  8
25
 66
1
 10
0.000000
 20
0.000000
 30
0.000000
 40
0.002500
 41
0.002500
 70
0
  0
VERTEX
  8
25
 10
0.203603
 20
0.685057
 30
0.000000
 42
1.000000
  0
VERTEX
  8
25
 10
0.205371
 20
0.686824
 30
0.000000
  0
SEQEND
  8
0
  0
POLYLINE
  8
25
 66
1
 10
0.000000
 20
0.000000
 30
0.000000
 40
0.002500
 41
0.002500
 70
0
  0
VERTEX
  8
25
 10
0.197865
 20
0.694331
 30
0.000000
 42
1.000000
  0
VERTEX
  8
25
 10
0.196097
 20
0.692563
 30
0.000000
  0
SEQEND
  8
0
  0
POLYLINE
  8
25
 66
1
 10
0.000000
 20
0.000000
 30
0.000000
 40
0.005000
 41
0.005000
 70
0
  0
VERTEX
  8
25
 10
0.204487
 20
0.685940
 30
0.000000
  0
VERTEX
  8
25
 10
0.204487
 20
0.663421
 30
0.000000
  0
SEQEND
  8
0
  0
POLYLINE
  8
25
 66
1
 10
0.000000
 20
0.000000
 30
0.000000
 40
0.002500
 41
0.002500
 70
0
  0
VERTEX
  8
25
 10
0.203237
 20
0.663421
 30
0.000000
 42
1.000000
  0
VERTEX
  8
25
 10
0.205737
 20
0.663421
 30
0.000000
  0
SEQEND
  8
0
  0
POLYLINE
  8
25
 66
1
 10
0.000000
 20
0.000000
 30
0.000000
 40
0.002500
 41
0.002500
 70
0
  0
VERTEX
  8
25
 10
0.205737
 20
0.685940
 30
0.000000
 42
1.000000
  0
VERTEX
  8
25
 10
0.203237
 20
0.685940
 30
0.000000
  0
SEQEND
  8
0
  0
POLYLINE
  8
25
 66
1
 10
0.000000
 20
0.000000
 30
0.000000
 40
0.005000
 41
0.005000
 70
0
  0
VERTEX
  8
25
 10
0.189474
 20
0.709461
 30
0.000000
  0
VERTEX
  8
25
 10
0.174462
 20
0.724473
 30
0.000000
  0
SEQEND
  8
0
  0
POLYLINE
  8
25
 66
1
 10
0.000000
 20
0.000000
 30
0.000000
 40
0.002500
 41
0.002500
 70
0
  0
VERTEX
  8
25
 10
0.175345
 20
0.725357
 30
0.000000
 42
1.000000
  0
VERTEX
  8
25
 10
0.173578
 20
0.723589
 30
0.000000
  0
SEQEND
  8
0
  0
POLYLINE
  8
25
 66
1
 10
0.000000
 20
0.000000
 30
0.000000
 40
0.002500
 41
0.002500
 70
0
  0
VERTEX
  8
25
 10
0.188591
 20
0.708577
 30
0.000000
 42
1.000000
  0
VERTEX
  8
25
 10
0.190358
 20
0.710344
 30
0.000000
  0
SEQEND
  8
0
  0
POLYLINE
  8
25
 66
1
 10
0.000000
 20
0.000000
 30
0.000000
 40
0.005000
 41
0.005000
 70
0
  0
VERTEX
  8
25
 10
0.174462
 20
0.724473
 30
0.000000
  0
VERTEX
  8
25
 10
0.219500
 20
0.724473
 30
0.000000
  0
SEQEND
  8
0
  0
POLYLINE
  8
25
 66
1
 10
0.000000
 20
0.000000
 30
0.000000
 40
0.002500
 41
0.002500
 70
0
  0
VERTEX
  8
25
 10
0.219500
 20
0.723223
 30
0.000000
 42
1.000000
  0
VERTEX
  8
25
 10
0.219500
 20
0.725723
 30
0.000000
  0
SEQEND
  8
0
  0
POLYLINE
  8
25
 66
1
 10
0.000000
 20
0.000000
 30
0.000000
 40
0.002500
 41
0.002500
 70
0
  0
VERTEX
  8
25
 10
0.174462
 20
0.725723
 30
0.000000
 42
1.000000
  0
VERTEX
  8
25
 10
0.174462
 20
0.723223
 30
0.000000
  0
SEQEND
  8
0
  0
POLYLINE
  8
25
 66
1
 10
0.000000
 20
0.000000
 30
0.000000
 40
0.005000
 41
0.005000
 70
0
  0
VERTEX
  8
25
 10
0.219500
 20
0.709461
 30
0.000000
  0
VERTEX
  8
25
 10
0.219500
 20
0.739486
 30
0.000000
  0
SEQEND
  8
0
  0
POLYLINE
  8
25
 66
1
 10
0.000000
 20
0.000000
 30
0.000000
 40
0.002500
 41
0.002500
 70
0
  0
VERTEX
  8
25
 10
0.220750
 20
0.739486
 30
0.000000
 42
1.000000
  0
VERTEX
  8
25
 10
0.218250
 20
0.739486
 30
0.000000
  0
SEQEND
  8
0
  0
POLYLINE
  8
25
 66
1
 10
0.000000
 20
0.000000
 30
0.000000
 40
0.002500
 41
0.002500
 70
0
  0
VERTEX
  8
25
 10
0.218250
 20
0.709461
 30
0.000000
 42
1.000000
  0
VERTEX
  8
25
 10
0.220750
 20
0.709461
 30
0.000000
  0
SEQEND
  8
0
  0
INSERT
  8
51
  2
RECT
 10
0.100000
 20
0.700000
 30
0.000000
 41
0.023000
 42
0.023000
 43
1.000000
 50
270.000000
  0
INSERT
  8
51
  2
RECT
 10
0.100000
 20
0.600000
 30
0.000000
 41
0.023000
 42
0.023000
 43
1.000000
 50
270.000000
  0
INSERT
  8
17
  2
ROUNDP
 10
0.100000
 20
0.707000
 30
0.000000
 41
0.074000
 42
0.074000
 43
1.000000
 50
0.000000
  0
INSERT
  8
17
  2
ROUNDP
 10
0.100000
 20
0.707000
 30
0.000000
 41
0.074000
 42
0.074000
 43
1.000000
 50
0.000000
  0
INSERT
  8
17
  2
ROUNDP
 10
0.100000
 20
0.593000
 30
0.000000
 41
0.074000
 42
0.074000
 43
1.000000
 50
0.000000
  0
INSERT
  8
17
  2
ROUNDP
 10
0.100000
 20
0.593000
 30
0.000000
 41
0.074000
 42
0.074000
 43
1.000000
 50
0.000000
  0
POINT
  8
23
 10
2.100000
 20
1.500000
 30
0.000000
  0
POLYLINE
  8
21
 66
1
 10
0.000000
 20
0.000000
 30
0.000000
 40
0.008000
 41
0.008000
 70
0
  0
VERTEX
  8
21
 10
2.150000
 20
1.525000
 30
0.000000
  0
VERTEX
  8
21
 10
2.150000
 20
1.475000
 30
0.000000
  0
SEQEND
  8
0
  0
POLYLINE
  8
21
 66
1
 10
0.000000
 20
0.000000
 30
0.000000
 40
0.004000
 41
0.004000
 70
0
  0
VERTEX
  8
21
 10
2.148000
 20
1.475000
 30
0.000000
 42
1.000000
  0
VERTEX
  8
21
 10
2.152000
 20
1.475000
 30
0.000000
  0
SEQEND
  8
0
  0
POLYLINE
  8
21
 66
1
 10
0.000000
 20
0.000000
 30
0.000000
 40
0.004000
 41
0.004000
 70
0
  0
VERTEX
  8
21
 10
2.152000
 20
1.525000
 30
0.000000
 42
1.000000
  0
VERTEX
  8
21
 10
2.148000
 20
1.525000
 30
0.000000
  0
SEQEND
  8
0
  0
POLYLINE
  8
21
 66
1
 10
0.000000
 20
0.000000
 30
0.000000
 40
0.008000
 41
0.008000
 70
0
  0
VERTEX
  8
21
 10
2.150000
 20
1.475000
 30
0.000000
  0
VERTEX
  8
21
 10
2.125000
 20
1.450000
 30
0.000000
  0
SEQEND
  8
0
  0
POLYLINE
  8
21
 66
1
 10
0.000000
 20
0.000000
 30
0.000000
 40
0.004000
 41
0.004000
 70
0
  0
VERTEX
  8
21
 10
2.123586
 20
1.451414
 30
0.000000
 42
1.000000
  0
VERTEX
  8
21
 10
2.126414
 20
1.448586
 30
0.000000
  0
SEQEND
  8
0
  0
POLYLINE
  8
21
 66
1
 10
0.000000
 20
0.000000
 30
0.000000
 40
0.004000
 41
0.004000
 70
0
  0
VERTEX
  8
21
 10
2.151414
 20
1.473586
 30
0.000000
 42
1.000000
  0
VERTEX
  8
21
 10
2.148586
 20
1.476414
 30
0.000000
  0
SEQEND
  8
0
  0
POLYLINE
  8
21
 66
1
 10
0.000000
 20
0.000000
 30
0.000000
 40
0.008000
 41
0.008000
 70
0
  0
VERTEX
  8
21
 10
2.075000
 20
1.450000
 30
0.000000
  0
VERTEX
  8
21
 10
2.050000
 20
1.475000
 30
0.000000
  0
SEQEND
  8
0
  0
POLYLINE
  8
21
 66
1
 10
0.000000
 20
0.000000
 30
0.000000
 40
0.004000
 41
0.004000
 70
0
  0
VERTEX
  8
21
 10
2.051414
 20
1.476414
 30
0.000000
 42
1.000000
  0
VERTEX
  8
21
 10
2.048586
 20
1.473586
 30
0.000000
  0
SEQEND
  8
0
  0
POLYLINE
  8
21
 66
1
 10
0.000000
 20
0.000000
 30
0.000000
 40
0.004000
 41
0.004000
 70
0
  0
VERTEX
  8
21
 10
2.073586
 20
1.448586
 30
0.000000
 42
1.000000
  0
VERTEX
  8
21
 10
2.076414
 20
1.451414
 30
0.000000
  0
SEQEND
  8
0
  0
POLYLINE
  8
21
 66
1
 10
0.000000
 20
0.000000
 30
0.000000
 40
0.008000
 41
0.008000
 70
0
  0
VERTEX
  8
21
 10
2.125000
 20
1.450000
 30
0.000000
  0
VERTEX
  8
21
 10
2.150000
 20
1.425000
 30
0.000000
  0
SEQEND
  8
0
  0
POLYLINE
  8
21
 66
1
 10
0.000000
 20
0.000000
 30
0.000000
 40
0.004000
 41
0.004000
 70
0
  0
VERTEX
  8
21
 10
2.148586
 20
1.423586
 30
0.000000
 42
1.000000
  0
VERTEX
  8
21
 10
2.151414
 20
1.426414
 30
0.000000
  0
SEQEND
  8
0
  0
POLYLINE
  8
21
 66
1
 10
0.000000
 20
0.000000
 30
0.000000
 40
0.004000
 41
0.004000
 70
0
  0
VERTEX
  8
21
 10
2.126414
 20
1.451414
 30
0.000000
 42
1.000000
  0
VERTEX
  8
21
 10
2.123586
 20
1.448586
 30
0.000000
  0
SEQEND
  8
0
  0
POLYLINE
  8
21
 66
1
 10
0.000000
 20
0.000000
 30
0.000000
 40
0.008000
 41
0.008000
 70
0
  0
VERTEX
  8
21
 10
2.150000
 20
1.425000
 30
0.000000
  0
VERTEX
  8
21
 10
2.150000
 20
1.375000
 30
0.000000
  0
SEQEND
  8
0
  0
POLYLINE
  8
21
 66
1
 10
0.000000
 20
0.000000
 30
0.000000
 40
0.004000
 41
0.004000
 70
0
  0
VERTEX
  8
21
 10
2.148000
 20
1.375000
 30
0.000000
 42
1.000000
  0
VERTEX
  8
21
 10
2.152000
 20
1.375000
 30
0.000000
  0
SEQEND
  8
0
  0
POLYLINE
  8
21
 66
1
 10
0.000000
 20
0.000000
 30
0.000000
 40
0.004000
 41
0.004000
 70
0
  0
VERTEX
  8
21
 10
2.152000
 20
1.425000
 30
0.000000
 42
1.000000
  0
VERTEX
  8
21
 10
2.148000
 20
1.425000
 30
0.000000
  0
SEQEND
  8
0
  0
POLYLINE
  8
21
 66
1
 10
0.000000
 20
0.000000
 30
0.000000
 40
0.008000
 41
0.008000
 70
0
  0
VERTEX
  8
21
 10
2.150000
 20
1.375000
 30
0.000000
  0
VERTEX
  8
21
 10
2.125000
 20
1.350000
 30
0.000000
  0
SEQEND
  8
0
  0
POLYLINE
  8
21
 66
1
 10
0.000000
 20
0.000000
 30
0.000000
 40
0.004000
 41
0.004000
 70
0
  0
VERTEX
  8
21
 10
2.123586
 20
1.351414
 30
0.000000
 42
1.000000
  0
VERTEX
  8
21
 10
2.126414
 20
1.348586
 30
0.000000
  0
SEQEND
  8
0
  0
POLYLINE
  8
21
 66
1
 10
0.000000
 20
0.000000
 30
0.000000
 40
0.004000
 41
0.004000
 70
0
  0
VERTEX
  8
21
 10
2.151414
 20
1.373586
 30
0.000000
 42
1.000000
  0
VERTEX
  8
21
 10
2.148586
 20
1.376414
 30
0.000000
  0
SEQEND
  8
0
  0
POLYLINE
  8
21
 66
1
 10
0.000000
 20
0.000000
 30
0.000000
 40
0.008000
 41
0.008000
 70
0
  0
VERTEX
  8
21
 10
2.075000
 20
1.350000
 30
0.000000
  0
VERTEX
  8
21
 10
2.050000
 20
1.375000
 30
0.000000
  0
SEQEND
  8
0
  0
POLYLINE
  8
21
 66
1
 10
0.000000
 20
0.000000
 30
0.000000
 40
0.004000
 41
0.004000
 70
0
  0
VERTEX
  8
21
 10
2.051414
 20
1.376414
 30
0.000000
 42
1.000000
  0
VERTEX
  8
21
 10
2.048586
 20
1.373586
 30
0.000000
  0
SEQEND
  8
0
  0
POLYLINE
  8
21
 66
1
 10
0.000000
 20
0.000000
 30
0.000000
 40
0.004000
 41
0.004000
 70
0
  0
VERTEX
  8
21
 10
2.073586
 20
1.348586
 30
0.000000
 42
1.000000
  0
VERTEX
  8
21
 10
2.076414
 20
1.351414
 30
0.000000
  0
SEQEND
  8
0
  0
POLYLINE
  8
21
 66
1
 10
0.000000
 20
0.000000
 30
0.000000
 40
0.008000
 41
0.008000
 70
0
  0
VERTEX
  8
21
 10
2.050000
 20
1.375000
 30
0.000000
  0
VERTEX
  8
21
 10
2.050000
 20
1.425000
 30
0.000000
  0
SEQEND
  8
0
  0
POLYLINE
  8
21
 66
1
 10
0.000000
 20
0.000000
 30
0.000000
 40
0.004000
 41
0.004000
 70
0
  0
VERTEX
  8
21
 10
2.052000
 20
1.425000
 30
0.000000
 42
1.000000
  0
VERTEX
  8
21
 10
2.048000
 20
1.425000
 30
0.000000
  0
SEQEND
  8
0
  0
POLYLINE
  8
21
 66
1
 10
0.000000
 20
0.000000
 30
0.000000
 40
0.004000
 41
0.004000
 70
0
  0
VERTEX
  8
21
 10
2.048000
 20
1.375000
 30
0.000000
 42
1.000000
  0
VERTEX
  8
21
 10
2.052000
 20
1.375000
 30
0.000000
  0
SEQEND
  8
0
  0
POLYLINE
  8
21
 66
1
 10
0.000000
 20
0.000000
 30
0.000000
 40
0.008000
 41
0.008000
 70
0
  0
VERTEX
  8
21
 10
2.050000
 20
1.425000
 30
0.000000
  0
VERTEX
  8
21
 10
2.075000
 20
1.450000
 30
0.000000
  0
SEQEND
  8
0
  0
POLYLINE
  8
21
 66
1
 10
0.000000
 20
0.000000
 30
0.000000
 40
0.004000
 41
0.004000
 70
0
  0
VERTEX
  8
21
 10
2.076414
 20
1.448586
 30
0.000000
 42
1.000000
  0
VERTEX
  8
21
 10
2.073586
 20
1.451414
 30
0.000000
  0
SEQEND
  8
0
  0
POLYLINE
  8
21
 66
1
 10
0.000000
 20
0.000000
 30
0.000000
 40
0.004000
 41
0.004000
 70
0
  0
VERTEX
  8
21
 10
2.048586
 20
1.426414
 30
0.000000
 42
1.000000
  0
VERTEX
  8
21
 10
2.051414
 20
1.423586
 30
0.000000
  0
SEQEND
  8
0
  0
POLYLINE
  8
21
 66
1
 10
0.000000
 20
0.000000
 30
0.000000
 40
0.008000
 41
0.008000
 70
0
  0
VERTEX
  8
21
 10
2.125000
 20
1.550000
 30
0.000000
  0
VERTEX
  8
21
 10
2.075000
 20
1.550000
 30
0.000000
  0
SEQEND
  8
0
  0
POLYLINE
  8
21
 66
1
 10
0.000000
 20
0.000000
 30
0.000000
 40
0.004000
 41
0.004000
 70
0
  0
VERTEX
  8
21
 10
2.075000
 20
1.552000
 30
0.000000
 42
1.000000
  0
VERTEX
  8
21
 10
2.075000
 20
1.548000
 30
0.000000
  0
SEQEND
  8
0
  0
POLYLINE
  8
21
 66
1
 10
0.000000
 20
0.000000
 30
0.000000
 40
0.004000
 41
0.004000
 70
0
  0
VERTEX
  8
21
 10
2.125000
 20
1.548000
 30
0.000000
 42
1.000000
  0
VERTEX
  8
21
 10
2.125000
 20
1.552000
 30
0.000000
  0
SEQEND
  8
0
  0
POLYLINE
  8
21
 66
1
 10
0.000000
 20
0.000000
 30
0.000000
 40
0.008000
 41
0.008000
 70
0
  0
VERTEX
  8
21
 10
2.150000
 20
1.525000
 30
0.000000
  0
VERTEX
  8
21
 10
2.125000
 20
1.550000
 30
0.000000
  0
SEQEND
  8
0
  0
POLYLINE
  8
21
 66
1
 10
0.000000
 20
0.000000
 30
0.000000
 40
0.004000
 41
0.004000
 70
0
  0
VERTEX
  8
21
 10
2.126414
 20
1.551414
 30
0.000000
 42
1.000000
  0
VERTEX
  8
21
 10
2.123586
 20
1.548586
 30
0.000000
  0
SEQEND
  8
0
  0
POLYLINE
  8
21
 66
1
 10
0.000000
 20
0.000000
 30
0.000000
 40
0.004000
 41
0.004000
 70
0
  0
VERTEX
  8
21
 10
2.148586
 20
1.523586
 30
0.000000
 42
1.000000
  0
VERTEX
  8
21
 10
2.151414
 20
1.526414
 30
0.000000
  0
SEQEND
  8
0
  0
POLYLINE
  8
21
 66
1
 10
0.000000
 20
0.000000
 30
0.000000
 40
0.008000
 41
0.008000
 70
0
  0
VERTEX
  8
21
 10
2.075000
 20
1.550000
 30
0.000000
  0
VERTEX
  8
21
 10
2.050000
 20
1.525000
 30
0.000000
  0
SEQEND
  8
0
  0
POLYLINE
  8
21
 66
1
 10
0.000000
 20
0.000000
 30
0.000000
 40
0.004000
 41
0.004000
 70
0
  0
VERTEX
  8
21
 10
2.048586
 20
1.526414
 30
0.000000
 42
1.000000
  0
VERTEX
  8
21
 10
2.051414
 20
1.523586
 30
0.000000
  0
SEQEND
  8
0
  0
POLYLINE
  8
21
 66
1
 10
0.000000
 20
0.000000
 30
0.000000
 40
0.004000
 41
0.004000
 70
0
  0
VERTEX
  8
21
 10
2.076414
 20
1.548586
 30
0.000000
 42
1.000000
  0
VERTEX
  8
21
 10
2.073586
 20
1.551414
 30
0.000000
  0
SEQEND
  8
0
  0
POLYLINE
  8
21
 66
1
 10
0.000000
 20
0.000000
 30
0.000000
 40
0.008000
 41
0.008000
 70
0
  0
VERTEX
  8
21
 10
2.050000
 20
1.475000
 30
0.000000
  0
VERTEX
  8
21
 10
2.050000
 20
1.525000
 30
0.000000
  0
SEQEND
  8
0
  0
POLYLINE
  8
21
 66
1
 10
0.000000
 20
0.000000
 30
0.000000
 40
0.004000
 41
0.004000
 70
0
  0
VERTEX
  8
21
 10
2.052000
 20
1.525000
 30
0.000000
 42
1.000000
  0
VERTEX
  8
21
 10
2.048000
 20
1.525000
 30
0.000000
  0
SEQEND
  8
0
  0
POLYLINE
  8
21
 66
1
 10
0.000000
 20
0.000000
 30
0.000000
 40
0.004000
 41
0.004000
 70
0
  0
VERTEX
  8
21
 10
2.048000
 20
1.475000
 30
0.000000
 42
1.000000
  0
VERTEX
  8
21
 10
2.052000
 20
1.475000
 30
0.000000
  0
SEQEND
  8
0
  0
POLYLINE
  8
21
 66
1
 10
0.000000
 20
0.000000
 30
0.000000
 40
0.008000
 41
0.008000
 70
0
  0
VERTEX
  8
21
 10
2.125000
 20
1.350000
 30
0.000000
  0
VERTEX
  8
21
 10
2.075000
 20
1.350000
 30
0.000000
  0
SEQEND
  8
0
  0
POLYLINE
  8
21
 66
1
 10
0.000000
 20
0.000000
 30
0.000000
 40
0.004000
 41
0.004000
 70
0
  0
VERTEX
  8
21
 10
2.075000
 20
1.352000
 30
0.000000
 42
1.000000
  0
VERTEX
  8
21
 10
2.075000
 20
1.348000
 30
0.000000
  0
SEQEND
  8
0
  0
POLYLINE
  8
21
 66
1
 10
0.000000
 20
0.000000
 30
0.000000
 40
0.004000
 41
0.004000
 70
0
  0
VERTEX
  8
21
 10
2.125000
 20
1.348000
 30
0.000000
 42
1.000000
  0
VERTEX
  8
21
 10
2.125000
 20
1.352000
 30
0.000000
  0
SEQEND
  8
0
  0
POLYLINE
  8
25
 66
1
 10
0.000000
 20
0.000000
 30
0.000000
 40
0.005000
 41
0.005000
 70
0
  0
VERTEX
  8
25
 10
2.211994
 20
1.417382
 30
0.000000
  0
VERTEX
  8
25
 10
2.219500
 20
1.424888
 30
0.000000
  0
SEQEND
  8
0
  0
POLYLINE
  8
25
 66
1
 10
0.000000
 20
0.000000
 30
0.000000
 40
0.002500
 41
0.002500
 70
0
  0
VERTEX
  8
25
 10
2.220384
 20
1.424005
 30
0.000000
 42
1.000000
  0
VERTEX
  8
25
 10
2.218616
 20
1.425772
 30
0.000000
  0
SEQEND
  8
0
  0
POLYLINE
  8
25
 66
1
 10
0.000000
 20
0.000000
 30
0.000000
 40
0.002500
 41
0.002500
 70
0
  0
VERTEX
  8
25
 10
2.211110
 20
1.418266
 30
0.000000
 42
1.000000
  0
VERTEX
  8
25
 10
2.212877
 20
1.416498
 30
0.000000
  0
SEQEND
  8
0
  0
POLYLINE
  8
25
 66
1
 10
0.000000
 20
0.000000
 30
0.000000
 40
0.005000
 41
0.005000
 70
0
  0
VERTEX
  8
25
 10
2.219500
 20
1.424888
 30
0.000000
  0
VERTEX
  8
25
 10
2.219500
 20
1.432395
 30
0.000000
  0
SEQEND
  8
0
  0
POLYLINE
  8
25
 66
1
 10
0.000000
 20
0.000000
 30
0.000000
 40
0.002500
 41
0.002500
 70
0
  0
VERTEX
  8
25
 10
2.220750
 20
1.432395
 30
0.000000
 42
1.000000
  0
VERTEX
  8
25
 10
2.218250
 20
1.432395
 30
0.000000
  0
SEQEND
  8
0
  0
POLYLINE
  8
25
 66
1
 10
0.000000
 20
0.000000
 30
0.000000
 40
0.002500
 41
0.002500
 70
0
  0
VERTEX
  8
25
 10
2.218250
 20
1.424888
 30
0.000000
 42
1.000000
  0
VERTEX
  8
25
 10
2.220750
 20
1.424888
 30
0.000000
  0
SEQEND
  8
0
  0
POLYLINE
  8
25
 66
1
 10
0.000000
 20
0.000000
 30
0.000000
 40
0.005000
 41
0.005000
 70
0
  0
VERTEX
  8
25
 10
2.219500
 20
1.432395
 30
0.000000
  0
VERTEX
  8
25
 10
2.211994
 20
1.439901
 30
0.000000
  0
SEQEND
  8
0
  0
POLYLINE
  8
25
 66
1
 10
0.000000
 20
0.000000
 30
0.000000
 40
0.002500
 41
0.002500
 70
0
  0
VERTEX
  8
25
 10
2.212877
 20
1.440785
 30
0.000000
 42
1.000000
  0
VERTEX
  8
25
 10
2.211110
 20
1.439017
 30
0.000000
  0
SEQEND
  8
0
  0
POLYLINE
  8
25
 66
1
 10
0.000000
 20
0.000000
 30
0.000000
 40
0.002500
 41
0.002500
 70
0
  0
VERTEX
  8
25
 10
2.218616
 20
1.431511
 30
0.000000
 42
1.000000
  0
VERTEX
  8
25
 10
2.220384
 20
1.433279
 30
0.000000
  0
SEQEND
  8
0
  0
POLYLINE
  8
25
 66
1
 10
0.000000
 20
0.000000
 30
0.000000
 40
0.005000
 41
0.005000
 70
0
  0
VERTEX
  8
25
 10
2.211994
 20
1.439901
 30
0.000000
  0
VERTEX
  8
25
 10
2.174462
 20
1.439901
 30
0.000000
  0
SEQEND
  8
0
  0
POLYLINE
  8
25
 66
1
 10
0.000000
 20
0.000000
 30
0.000000
 40
0.002500
 41
0.002500
 70
0
  0
VERTEX
  8
25
 10
2.174462
 20
1.441151
 30
0.000000
 42
1.000000
  0
VERTEX
  8
25
 10
2.174462
 20
1.438651
 30
0.000000
  0
SEQEND
  8
0
  0
POLYLINE
  8
25
 66
1
 10
0.000000
 20
0.000000
 30
0.000000
 40
0.002500
 41
0.002500
 70
0
  0
VERTEX
  8
25
 10
2.211994
 20
1.438651
 30
0.000000
 42
1.000000
  0
VERTEX
  8
25
 10
2.211994
 20
1.441151
 30
0.000000
  0
SEQEND
  8
0
  0
POLYLINE
  8
25
 66
1
 10
0.000000
 20
0.000000
 30
0.000000
 40
0.005000
 41
0.005000
 70
0
  0
VERTEX
  8
25
 10
2.174462
 20
1.432395
 30
0.000000
  0
VERTEX
  8
25
 10
2.174462
 20
1.447408
 30
0.000000
  0
SEQEND
  8
0
  0
POLYLINE
  8
25
 66
1
 10
0.000000
 20
0.000000
 30
0.000000
 40
0.002500
 41
0.002500
 70
0
  0
VERTEX
  8
25
 10
2.175712
 20
1.447408
 30
0.000000
 42
1.000000
  0
VERTEX
  8
25
 10
2.173212
 20
1.447408
 30
0.000000
  0
SEQEND
  8
0
  0
POLYLINE
  8
25
 66
1
 10
0.000000
 20
0.000000
 30
0.000000
 40
0.002500
 41
0.002500
 70
0
  0
VERTEX
  8
25
 10
2.173212
 20
1.432395
 30
0.000000
 42
1.000000
  0
VERTEX
  8
25
 10
2.175712
 20
1.432395
 30
0.000000
  0
SEQEND
  8
0
  0
POLYLINE
  8
25
 66
1
 10
0.000000
 20
0.000000
 30
0.000000
 40
0.005000
 41
0.005000
 70
0
  0
VERTEX
  8
25
 10
2.219500
 20
1.463421
 30
0.000000
  0
VERTEX
  8
25
 10
2.174462
 20
1.463421
 30
0.000000
  0
SEQEND
  8
0
  0
POLYLINE
  8
25
 66
1
 10
0.000000
 20
0.000000
 30
0.000000
 40
0.002500
 41
0.002500
 70
0
  0
VERTEX
  8
25
 10
2.174462
 20
1.464671
 30
0.000000
 42
1.000000
  0
VERTEX
  8
25
 10
2.174462
 20
1.462171
 30
0.000000
  0
SEQEND
  8
0
  0
POLYLINE
  8
25
 66
1
 10
0.000000
 20
0.000000
 30
0.000000
 40
0.002500
 41
0.002500
 70
0
  0
VERTEX
  8
25
 10
2.219500
 20
1.462171
 30
0.000000
 42
1.000000
  0
VERTEX
  8
25
 10
2.219500
 20
1.464671
 30
0.000000
  0
SEQEND
  8
0
  0
POLYLINE
  8
25
 66
1
 10
0.000000
 20
0.000000
 30
0.000000
 40
0.005000
 41
0.005000
 70
0
  0
VERTEX
  8
25
 10
2.174462
 20
1.463421
 30
0.000000
  0
VERTEX
  8
25
 10
2.174462
 20
1.485940
 30
0.000000
  0
SEQEND
  8
0
  0
POLYLINE
  8
25
 66
1
 10
0.000000
 20
0.000000
 30
0.000000
 40
0.002500
 41
0.002500
 70
0
  0
VERTEX
  8
25
 10
2.175712
 20
1.485940
 30
0.000000
 42
1.000000
  0
VERTEX
  8
25
 10
2.173212
 20
1.485940
 30
0.000000
  0
SEQEND
  8
0
  0
POLYLINE
  8
25
 66
1
 10
0.000000
 20
0.000000
 30
0.000000
 40
0.002500
 41
0.002500
 70
0
  0
VERTEX
  8
25
 10
2.173212
 20
1.463421
 30
0.000000
 42
1.000000
  0
VERTEX
  8
25
 10
2.175712
 20
1.463421
 30
0.000000
  0
SEQEND
  8
0
  0
POLYLINE
  8
25
 66
1
 10
0.000000
 20
0.000000
 30
0.000000
 40
0.005000
 41
0.005000
 70
0
  0
VERTEX
  8
25
 10
2.174462
 20
1.485940
 30
0.000000
  0
VERTEX
  8
25
 10
2.181968
 20
1.493447
 30
0.000000
  0
SEQEND
  8
0
  0
POLYLINE
  8
25
 66
1
 10
0.000000
 20
0.000000
 30
0.000000
 40
0.002500
 41
0.002500
 70
0
  0
VERTEX
  8
25
 10
2.182852
 20
1.492563
 30
0.000000
 42
1.000000
  0
VERTEX
  8
25
 10
2.181084
 20
1.494331
 30
0.000000
  0
SEQEND
  8
0
  0
POLYLINE
  8
25
 66
1
 10
0.000000
 20
0.000000
 30
0.000000
 40
0.002500
 41
0.002500
 70
0
  0
VERTEX
  8
25
 10
2.173578
 20
1.486824
 30
0.000000
 42
1.000000
  0
VERTEX
  8
25
 10
2.175345
 20
1.485057
 30
0.000000
  0
SEQEND
  8
0
  0
POLYLINE
  8
25
 66
1
 10
0.000000
 20
0.000000
 30
0.000000
 40
0.005000
 41
0.005000
 70
0
  0
VERTEX
  8
25
 10
2.181968
 20
1.493447
 30
0.000000
  0
VERTEX
  8
25
 10
2.196981
 20
1.493447
 30
0.000000
  0
SEQEND
  8
0
  0
POLYLINE
  8
25
 66
1
 10
0.000000
 20
0.000000
 30
0.000000
 40
0.002500
 41
0.002500
 70
0
  0
VERTEX
  8
25
 10
2.196981
 20
1.492197
 30
0.000000
 42
1.000000
  0
VERTEX
  8
25
 10
2.196981
 20
1.494697
 30
0.000000
  0
SEQEND
  8
0
  0
POLYLINE
  8
25
 66
1
 10
0.000000
 20
0.000000
 30
0.000000
 40
0.002500
 41
0.002500
 70
0
  0
VERTEX
  8
25
 10
2.181968
 20
1.494697
 30
0.000000
 42
1.000000
  0
VERTEX
  8
25
 10
2.181968
 20
1.492197
 30
0.000000
  0
SEQEND
  8
0
  0
POLYLINE
  8
25
 66
1
 10
0.000000
 20
0.000000
 30
0.000000
 40
0.005000
 41
0.005000
 70
0
  0
VERTEX
  8
25
 10
2.196981
 20
1.493447
 30
0.000000
  0
VERTEX
  8
25
 10
2.204487
 20
1.485940
 30
0.000000
  0
SEQEND
  8
0
  0
POLYLINE
  8
25
 66
1
 10
0.000000
 20
0.000000
 30
0.000000
 40
0.002500
 41
0.002500
 70
0
  0
VERTEX
  8
25
 10
2.203603
 20
1.485057
 30
0.000000
 42
1.000000
  0
VERTEX
  8
25
 10
2.205371
 20
1.486824
 30
0.000000
  0
SEQEND
  8
0
  0
POLYLINE
  8
25
 66
1
 10
0.000000
 20
0.000000
 30
0.000000
 40
0.002500
 41
0.002500
 70
0
  0
VERTEX
  8
25
 10
2.197865
 20
1.494331
 30
0.000000
 42
1.000000
  0
VERTEX
  8
25
 10
2.196097
 20
1.492563
 30
0.000000
  0
SEQEND
  8
0
  0
POLYLINE
  8
25
 66
1
 10
0.000000
 20
0.000000
 30
0.000000
 40
0.005000
 41
0.005000
 70
0
  0
VERTEX
  8
25
 10
2.204487
 20
1.485940
 30
0.000000
  0
VERTEX
  8
25
 10
2.204487
 20
1.463421
 30
0.000000
  0
SEQEND
  8
0
  0
POLYLINE
  8
25
 66
1
 10
0.000000
 20
0.000000
 30
0.000000
 40
0.002500
 41
0.002500
 70
0
  0
VERTEX
  8
25
 10
2.203237
 20
1.463421
 30
0.000000
 42
1.000000
  0
VERTEX
  8
25
 10
2.205737
 20
1.463421
 30
0.000000
  0
SEQEND
  8
0
  0
POLYLINE
  8
25
 66
1
 10
0.000000
 20
0.000000
 30
0.000000
 40
0.002500
 41
0.002500
 70
0
  0
VERTEX
  8
25
 10
2.205737
 20
1.485940
 30
0.000000
 42
1.000000
  0
VERTEX
  8
25
 10
2.203237
 20
1.485940
 30
0.000000
  0
SEQEND
  8
0
  0
POLYLINE
  8
25
 66
1
 10
0.000000
 20
0.000000
 30
0.000000
 40
0.005000
 41
0.005000
 70
0
  0
VERTEX
  8
25
 10
2.219500
 20
1.539486
 30
0.000000
  0
VERTEX
  8
25
 10
2.219500
 20
1.509461
 30
0.000000
  0
SEQEND
  8
0
  0
POLYLINE
  8
25
 66
1
 10
0.000000
 20
0.000000
 30
0.000000
 40
0.002500
 41
0.002500
 70
0
  0
VERTEX
  8
25
 10
2.218250
 20
1.509461
 30
0.000000
 42
1.000000
  0
VERTEX
  8
25
 10
2.220750
 20
1.509461
 30
0.000000
  0
SEQEND
  8
0
  0
POLYLINE
  8
25
 66
1
 10
0.000000
 20
0.000000
 30
0.000000
 40
0.002500
 41
0.002500
 70
0
  0
VERTEX
  8
25
 10
2.220750
 20
1.539486
 30
0.000000
 42
1.000000
  0
VERTEX
  8
25
 10
2.218250
 20
1.539486
 30
0.000000
  0
SEQEND
  8
0
  0
POLYLINE
  8
25
 66
1
 10
0.000000
 20
0.000000
 30
0.000000
 40
0.005000
 41
0.005000
 70
0
  0
VERTEX
  8
25
 10
2.219500
 20
1.509461
 30
0.000000
  0
VERTEX
  8
25
 10
2.189474
 20
1.539486
 30
0.000000
  0
SEQEND
  8
0
  0
POLYLINE
  8
25
 66
1
 10
0.000000
 20
0.000000
 30
0.000000
 40
0.002500
 41
0.002500
 70
0
  0
VERTEX
  8
25
 10
2.190358
 20
1.540370
 30
0.000000
 42
1.000000
  0
VERTEX
  8
25
 10
2.188591
 20
1.538602
 30
0.000000
  0
SEQEND
  8
0
  0
POLYLINE
  8
25
 66
1
 10
0.000000
 20
0.000000
 30
0.000000
 40
0.002500
 41
0.002500
 70
0
  0
VERTEX
  8
25
 10
2.218616
 20
1.508577
 30
0.000000
 42
1.000000
  0
VERTEX
  8
25
 10
2.220384
 20
1.510344
 30
0.000000
  0
SEQEND
  8
0
  0
POLYLINE
  8
25
 66
1
 10
0.000000
 20
0.000000
 30
0.000000
 40
0.005000
 41
0.005000
 70
0
  0
VERTEX
  8
25
 10
2.189474
 20
1.539486
 30
0.000000
  0
VERTEX
  8
25
 10
2.181968
 20
1.539486
 30
0.000000
  0
SEQEND
  8
0
  0
POLYLINE
  8
25
 66
1
 10
0.000000
 20
0.000000
 30
0.000000
 40
0.002500
 41
0.002500
 70
0
  0
VERTEX
  8
25
 10
2.181968
 20
1.540736
 30
0.000000
 42
1.000000
  0
VERTEX
  8
25
 10
2.181968
 20
1.538236
 30
0.000000
  0
SEQEND
  8
0
  0
POLYLINE
  8
25
 66
1
 10
0.000000
 20
0.000000
 30
0.000000
 40
0.002500
 41
0.002500
 70
0
  0
VERTEX
  8
25
 10
2.189474
 20
1.538236
 30
0.000000
 42
1.000000
  0
VERTEX
  8
25
 10
2.189474
 20
1.540736
 30
0.000000
  0
SEQEND
  8
0
  0
POLYLINE
  8
25
 66
1
 10
0.000000
 20
0.000000
 30
0.000000
 40
0.005000
 41
0.005000
 70
0
  0
VERTEX
  8
25
 10
2.181968
 20
1.539486
 30
0.000000
  0
VERTEX
  8
25
 10
2.174462
 20
1.531980
 30
0.000000
  0
SEQEND
  8
0
  0
POLYLINE
  8
25
 66
1
 10
0.000000
 20
0.000000
 30
0.000000
 40
0.002500
 41
0.002500
 70
0
  0
VERTEX
  8
25
 10
2.173578
 20
1.532864
 30
0.000000
 42
1.000000
  0
VERTEX
  8
25
 10
2.175345
 20
1.531096
 30
0.000000
  0
SEQEND
  8
0
  0
POLYLINE
  8
25
 66
1
 10
0.000000
 20
0.000000
 30
0.000000
 40
0.002500
 41
0.002500
 70
0
  0
VERTEX
  8
25
 10
2.182852
 20
1.538602
 30
0.000000
 42
1.000000
  0
VERTEX
  8
25
 10
2.181084
 20
1.540370
 30
0.000000
  0
SEQEND
  8
0
  0
POLYLINE
  8
25
 66
1
 10
0.000000
 20
0.000000
 30
0.000000
 40
0.005000
 41
0.005000
 70
0
  0
VERTEX
  8
25
 10
2.174462
 20
1.531980
 30
0.000000
  0
VERTEX
  8
25
 10
2.174462
 20
1.516967
 30
0.000000
  0
SEQEND
  8
0
  0
POLYLINE
  8
25
 66
1
 10
0.000000
 20
0.000000
 30
0.000000
 40
0.002500
 41
0.002500
 70
0
  0
VERTEX
  8
25
 10
2.173212
 20
1.516967
 30
0.000000
 42
1.000000
  0
VERTEX
  8
25
 10
2.175712
 20
1.516967
 30
0.000000
  0
SEQEND
  8
0
  0
POLYLINE
  8
25
 66
1
 10
0.000000
 20
0.000000
 30
0.000000
 40
0.002500
 41
0.002500
 70
0
  0
VERTEX
  8
25
 10
2.175712
 20
1.531980
 30
0.000000
 42
1.000000
  0
VERTEX
  8
25
 10
2.173212
 20
1.531980
 30
0.000000
  0
SEQEND
  8
0
  0
POLYLINE
  8
25
 66
1
 10
0.000000
 20
0.000000
 30
0.000000
 40
0.005000
 41
0.005000
 70
0
  0
VERTEX
  8
25
 10
2.174462
 20
1.516967
 30
0.000000
  0
VERTEX
  8
25
 10
2.181968
 20
1.509461
 30
0.000000
  0
SEQEND
  8
0
  0
POLYLINE
  8
25
 66
1
 10
0.000000
 20
0.000000
 30
0.000000
 40
0.002500
 41
0.002500
 70
0
  0
VERTEX
  8
25
 10
2.181084
 20
1.508577
 30
0.000000
 42
1.000000
  0
VERTEX
  8
25
 10
2.182852
 20
1.510344
 30
0.000000
  0
SEQEND
  8
0
  0
POLYLINE
  8
25
 66
1
 10
0.000000
 20
0.000000
 30
0.000000
 40
0.002500
 41
0.002500
 70
0
  0
VERTEX
  8
25
 10
2.175345
 20
1.517851
 30
0.000000
 42
1.000000
  0
VERTEX
  8
25
 10
2.173578
 20
1.516083
 30
0.000000
  0
SEQEND
  8
0
  0
INSERT
  8
51
  2
RECT
 10
2.100000
 20
1.500000
 30
0.000000
 41
0.023000
 42
0.023000
 43
1.000000
 50
270.000000
  0
INSERT
  8
51
  2
RECT
 10
2.100000
 20
1.400000
 30
0.000000
 41
0.023000
 42
0.023000
 43
1.000000
 50
270.000000
  0
INSERT
  8
17
  2
ROUNDP
 10
2.100000
 20
1.507000
 30
0.000000
 41
0.074000
 42
0.074000
 43
1.000000
 50
0.000000
  0
INSERT
  8
17
  2
ROUNDP
 10
2.100000
 20
1.507000
 30
0.000000
 41
0.074000
 42
0.074000
 43
1.000000
 50
0.000000
  0
INSERT
  8
17
  2
ROUNDP
 10
2.100000
 20
1.393000
 30
0.000000
 41
0.074000
 42
0.074000
 43
1.000000
 50
0.000000
  0
INSERT
  8
17
  2
ROUNDP
 10
2.100000
 20
1.393000
 30
0.000000
 41
0.074000
 42
0.074000
 43
1.000000
 50
0.000000
  0
POINT
  8
23
 10
1.100000
 20
1.300000
 30
0.000000
  0
POLYLINE
  8
21
 66
1
 10
0.000000
 20
0.000000
 30
0.000000
 40
0.005000
 41
0.005000
 70
0
  0
VERTEX
  8
21
 10
0.200000
 20
2.200000
 30
0.000000
  0
VERTEX
  8
21
 10
0.200000
 20
0.250000
 30
0.000000
  0
SEQEND
  8
0
  0
POLYLINE
  8
21
 66
1
 10
0.000000
 20
0.000000
 30
0.000000
 40
0.002500
 41
0.002500
 70
0
  0
VERTEX
  8
21
 10
0.198750
 20
0.250000
 30
0.000000
 42
1.000000
  0
VERTEX
  8
21
 10
0.201250
 20
0.250000
 30
0.000000
  0
SEQEND
  8
0
  0
POLYLINE
  8
21
 66
1
 10
0.000000
 20
0.000000
 30
0.000000
 40
0.002500
 41
0.002500
 70
0
  0
VERTEX
  8
21
 10
0.201250
 20
2.200000
 30
0.000000
 42
1.000000
  0
VERTEX
  8
21
 10
0.198750
 20
2.200000
 30
0.000000
  0
SEQEND
  8
0
  0
POLYLINE
  8
21
 66
1
 10
0.000000
 20
0.000000
 30
0.000000
 40
0.005000
 41
0.005000
 70
0
  0
VERTEX
  8
21
 10
0.200000
 20
0.250000
 30
0.000000
  0
VERTEX
  8
21
 10
2.000000
 20
0.250000
 30
0.000000
  0
SEQEND
  8
0
  0
POLYLINE
  8
21
 66
1
 10
0.000000
 20
0.000000
 30
0.000000
 40
0.002500
 41
0.002500
 70
0
  0
VERTEX
  8
21
 10
2.000000
 20
0.248750
 30
0.000000
 42
1.000000
  0
VERTEX
  8
21
 10
2.000000
 20
0.251250
 30
0.000000
  0
SEQEND
  8
0
  0
POLYLINE
  8
21
 66
1
 10
0.000000
 20
0.000000
 30
0.000000
 40
0.002500
 41
0.002500
 70
0
  0
VERTEX
  8
21
 10
0.200000
 20
0.251250
 30
0.000000
 42
1.000000
  0
VERTEX
  8
21
 10
0.200000
 20
0.248750
 30
0.000000
  0
SEQEND
  8
0
  0
POLYLINE
  8
21
 66
1
 10
0.000000
 20
0.000000
 30
0.000000
 40
0.005000
 41
0.005000
 70
0
  0
VERTEX
  8
21
 10
2.000000
 20
0.250000
 30
0.000000
  0
VERTEX
  8
21
 10
2.000000
 20
2.200000
 30
0.000000
  0
SEQEND
  8
0
  0
POLYLINE
  8
21
 66
1
 10
0.000000
 20
0.000000
 30
0.000000
 40
0.002500
 41
0.002500
 70
0
  0
VERTEX
  8
21
 10
2.001250
 20
2.200000
 30
0.000000
 42
1.000000
  0
VERTEX
  8
21
 10
1.998750
 20
2.200000
 30
0.000000
  0
SEQEND
  8
0
  0
POLYLINE
  8
21
 66
1
 10
0.000000
 20
0.000000
 30
0.000000
 40
0.002500
 41
0.002500
 70
0
  0
VERTEX
  8
21
 10
1.998750
 20
0.250000
 30
0.000000
 42
1.000000
  0
VERTEX
  8
21
 10
2.001250
 20
0.250000
 30
0.000000
  0
SEQEND
  8
0
  0
POLYLINE
  8
21
 66
1
 10
0.000000
 20
0.000000
 30
0.000000
 40
0.005000
 41
0.005000
 70
0
  0
VERTEX
  8
21
 10
2.000000
 20
2.200000
 30
0.000000
  0
VERTEX
  8
21
 10
0.200000
 20
2.200000
 30
0.000000
  0
SEQEND
  8
0
  0
POLYLINE
  8
21
 66
1
 10
0.000000
 20
0.000000
 30
0.000000
 40
0.002500
 41
0.002500
 70
0
  0
VERTEX
  8
21
 10
0.200000
 20
2.201250
 30
0.000000
 42
1.000000
  0
VERTEX
  8
21
 10
0.200000
 20
2.198750
 30
0.000000
  0
SEQEND
  8
0
  0
POLYLINE
  8
21
 66
1
 10
0.000000
 20
0.000000
 30
0.000000
 40
0.002500
 41
0.002500
 70
0
  0
VERTEX
  8
21
 10
2.000000
 20
2.198750
 30
0.000000
 42
1.000000
  0
VERTEX
  8
21
 10
2.000000
 20
2.201250
 30
0.000000
  0
SEQEND
  8
0
  0
POLYLINE
  8
20
 66
1
 10
0.000000
 20
0.000000
 30
0.000000
 40
0.005000
 41
0.005000
 70
0
  0
VERTEX
  8
20
 10
1.200000
 20
2.350000
 30
0.000000
  0
VERTEX
  8
20
 10
0.925000
 20
2.350000
 30
0.000000
  0
SEQEND
  8
0
  0
POLYLINE
  8
20
 66
1
 10
0.000000
 20
0.000000
 30
0.000000
 40
0.002500
 41
0.002500
 70
0
  0
VERTEX
  8
20
 10
0.925000
 20
2.351250
 30
0.000000
 42
1.000000
  0
VERTEX
  8
20
 10
0.925000
 20
2.348750
 30
0.000000
  0
SEQEND
  8
0
  0
POLYLINE
  8
20
 66
1
 10
0.000000
 20
0.000000
 30
0.000000
 40
0.002500
 41
0.002500
 70
0
  0
VERTEX
  8
20
 10
1.200000
 20
2.348750
 30
0.000000
 42
1.000000
  0
VERTEX
  8
20
 10
1.200000
 20
2.351250
 30
0.000000
  0
SEQEND
  8
0
  0
POLYLINE
  8
20
 66
1
 10
0.000000
 20
0.000000
 30
0.000000
 40
0.005000
 41
0.005000
 70
0
  0
VERTEX
  8
20
 10
0.925000
 20
2.350000
 30
0.000000
 42
0.414214
  0
VERTEX
  8
20
 10
0.800000
 20
2.225000
 30
0.000000
  0
SEQEND
  8
0
  0
POLYLINE
  8
20
 66
1
 10
0.000000
 20
0.000000
 30
0.000000
 40
0.002500
 41
0.002500
 70
0
  0
VERTEX
  8
20
 10
0.925000
 20
2.348750
 30
0.000000
 42
1.000000
  0
VERTEX
  8
20
 10
0.925000
 20
2.351250
 30
0.000000
  0
SEQEND
  8
0
  0
POLYLINE
  8
20
 66
1
 10
0.000000
 20
0.000000
 30
0.000000
 40
0.002500
 41
0.002500
 70
0
  0
VERTEX
  8
20
 10
0.798750
 20
2.225000
 30
0.000000
 42
1.000000
  0
VERTEX
  8
20
 10
0.801250
 20
2.225000
 30
0.000000
  0
SEQEND
  8
0
  0
POLYLINE
  8
20
 66
1
 10
0.000000
 20
0.000000
 30
0.000000
 40
0.005000
 41
0.005000
 70
0
  0
VERTEX
  8
20
 10
0.800000
 20
2.225000
 30
0.000000
  0
VERTEX
  8
20
 10
0.800000
 20
0.225000
 30
0.000000
  0
SEQEND
  8
0
  0
POLYLINE
  8
20
 66
1
 10
0.000000
 20
0.000000
 30
0.000000
 40
0.002500
 41
0.002500
 70
0
  0
VERTEX
  8
20
 10
0.798750
 20
0.225000
 30
0.000000
 42
1.000000
  0
VERTEX
  8
20
 10
0.801250
 20
0.225000
 30
0.000000
  0
SEQEND
  8
0
  0
POLYLINE
  8
20
 66
1
 10
0.000000
 20
0.000000
 30
0.000000
 40
0.002500
 41
0.002500
 70
0
  0
VERTEX
  8
20
 10
0.801250
 20
2.225000
 30
0.000000
 42
1.000000
  0
VERTEX
  8
20
 10
0.798750
 20
2.225000
 30
0.000000
  0
SEQEND
  8
0
  0
POLYLINE
  8
20
 66
1
 10
0.000000
 20
0.000000
 30
0.000000
 40
0.005000
 41
0.005000
 70
0
  0
VERTEX
  8
20
 10
0.800000
 20
0.225000
 30
0.000000
 42
0.414214
  0
VERTEX
  8
20
 10
0.925000
 20
0.100000
 30
0.000000
  0
SEQEND
  8
0
  0
POLYLINE
  8
20
 66
1
 10
0.000000
 20
0.000000
 30
0.000000
 40
0.002500
 41
0.002500
 70
0
  0
VERTEX
  8
20
 10
0.801250
 20
0.225000
 30
0.000000
 42
1.000000
  0
VERTEX
  8
20
 10
0.798750
 20
0.225000
 30
0.000000
  0
SEQEND
  8
0
  0
POLYLINE
  8
20
 66
1
 10
0.000000
 20
0.000000
 30
0.000000
 40
0.002500
 41
0.002500
 70
0
  0
VERTEX
  8
20
 10
0.925000
 20
0.098750
 30
0.000000
 42
1.000000
  0
VERTEX
  8
20
 10
0.925000
 20
0.101250
 30
0.000000
  0
SEQEND
  8
0
  0
POLYLINE
  8
20
 66
1
 10
0.000000
 20
0.000000
 30
0.000000
 40
0.005000
 41
0.005000
 70
0
  0
VERTEX
  8
20
 10
0.925000
 20
0.100000
 30
0.000000
  0
VERTEX
  8
20
 10
1.200000
 20
0.100000
 30
0.000000
  0
SEQEND
  8
0
  0
POLYLINE
  8
20
 66
1
 10
0.000000
 20
0.000000
 30
0.000000
 40
0.002500
 41
0.002500
 70
0
  0
VERTEX
  8
20
 10
1.200000
 20
0.098750
 30
0.000000
 42
1.000000
  0
VERTEX
  8
20
 10
1.200000
 20
0.101250
 30
0.000000
  0
SEQEND
  8
0
  0
POLYLINE
  8
20
 66
1
 10
0.000000
 20
0.000000
 30
0.000000
 40
0.002500
 41
0.002500
 70
0
  0
VERTEX
  8
20
 10
0.925000
 20
0.101250
 30
0.000000
 42
1.000000
  0
VERTEX
  8
20
 10
0.925000
 20
0.098750
 30
0.000000
  0
SEQEND
  8
0
  0
POLYLINE
  8
20
 66
1
 10
0.000000
 20
0.000000
 30
0.000000
 40
0.005000
 41
0.005000
 70
0
  0
VERTEX
  8
20
 10
1.200000
 20
0.100000
 30
0.000000
 42
0.414214
  0
VERTEX
  8
20
 10
1.325000
 20
0.225000
 30
0.000000
  0
SEQEND
  8
0
  0
POLYLINE
  8
20
 66
1
 10
0.000000
 20
0.000000
 30
0.000000
 40
0.002500
 41
0.002500
 70
0
  0
VERTEX
  8
20
 10
1.200000
 20
0.101250
 30
0.000000
 42
1.000000
  0
VERTEX
  8
20
 10
1.200000
 20
0.098750
 30
0.000000
  0
SEQEND
  8
0
  0
POLYLINE
  8
20
 66
1
 10
0.000000
 20
0.000000
 30
0.000000
 40
0.002500
 41
0.002500
 70
0
  0
VERTEX
  8
20
 10
1.326250
 20
0.225000
 30
0.000000
 42
1.000000
  0
VERTEX
  8
20
 10
1.323750
 20
0.225000
 30
0.000000
  0
SEQEND
  8
0
  0
POLYLINE
  8
20
 66
1
 10
0.000000
 20
0.000000
 30
0.000000
 40
0.005000
 41
0.005000
 70
0
  0
VERTEX
  8
20
 10
1.325000
 20
0.225000
 30
0.000000
  0
VERTEX
  8
20
 10
1.325000
 20
2.225000
 30
0.000000
  0
SEQEND
  8
0
  0
POLYLINE
  8
20
 66
1
 10
0.000000
 20
0.000000
 30
0.000000
 40
0.002500
 41
0.002500
 70
0
  0
VERTEX
  8
20
 10
1.326250
 20
2.225000
 30
0.000000
 42
1.000000
  0
VERTEX
  8
20
 10
1.323750
 20
2.225000
 30
0.000000
  0
SEQEND
  8
0
  0
POLYLINE
  8
20
 66
1
 10
0.000000
 20
0.000000
 30
0.000000
 40
0.002500
 41
0.002500
 70
0
  0
VERTEX
  8
20
 10
1.323750
 20
0.225000
 30
0.000000
 42
1.000000
  0
VERTEX
  8
20
 10
1.326250
 20
0.225000
 30
0.000000
  0
SEQEND
  8
0
  0
POLYLINE
  8
20
 66
1
 10
0.000000
 20
0.000000
 30
0.000000
 40
0.005000
 41
0.005000
 70
0
  0
VERTEX
  8
20
 10
1.325000
 20
2.225000
 30
0.000000
 42
0.414214
  0
VERTEX
  8
20
 10
1.200000
 20
2.350000
 30
0.000000
  0
SEQEND
  8
0
  0
POLYLINE
  8
20
 66
1
 10
0.000000
 20
0.000000
 30
0.000000
 40
0.002500
 41
0.002500
 70
0
  0
VERTEX
  8
20
 10
1.323750
 20
2.225000
 30
0.000000
 42
1.000000
  0
VERTEX
  8
20
 10
1.326250
 20
2.225000
 30
0.000000
  0
SEQEND
  8
0
  0
POLYLINE
  8
20
 66
1
 10
0.000000
 20
0.000000
 30
0.000000
 40
0.002500
 41
0.002500
 70
0
  0
VERTEX
  8
20
 10
1.200000
 20
2.351250
 30
0.000000
 42
1.000000
  0
VERTEX
  8
20
 10
1.200000
 20
2.348750
 30
0.000000
  0
SEQEND
  8
0
  0
INSERT
  8
17
  2
ROUNDP
 10
0.505000
 20
2.225000
 30
0.000000
 41
0.142000
 42
0.142000
 43
1.000000
 50
0.000000
  0
INSERT
  8
17
  2
ROUNDP
 10
0.505000
 20
2.225000
 30
0.000000
 41
0.142000
 42
0.142000
 43
1.000000
 50
0.000000
  0
INSERT
  8
17
  2
ROUNDP
 10
1.607000
 20
2.225000
 30
0.000000
 41
0.142000
 42
0.142000
 43
1.000000
 50
0.000000
  0
INSERT
  8
17
  2
ROUNDP
 10
1.607000
 20
2.225000
 30
0.000000
 41
0.142000
 42
0.142000
 43
1.000000
 50
0.000000
  0
INSERT
  8
17
  2
ROUNDP
 10
1.607000
 20
0.233000
 30
0.000000
 41
0.142000
 42
0.142000
 43
1.000000
 50
0.000000
  0
INSERT
  8
17
  2
ROUNDP
 10
1.607000
 20
0.233000
 30
0.000000
 41
0.142000
 42
0.142000
 43
1.000000
 50
0.000000
  0
INSERT
  8
17
  2
ROUNDP
 10
0.505000
 20
0.233000
 30
0.000000
 41
0.142000
 42
0.142000
 43
1.000000
 50
0.000000
  0
INSERT
  8
17
  2
ROUNDP
 10
0.505000
 20
0.233000
 30
0.000000
 41
0.142000
 42
0.142000
 43
1.000000
 50
0.000000
  0
INSERT
  8
17
  2
ROUNDP
 10
0.425000
 20
1.900000
 30
0.000000
 41
0.094488
 42
0.094488
 43
1.000000
 50
90.000000
  0
INSERT
  8
17
  2
ROUNDP
 10
0.425000
 20
1.900000
 30
0.000000
 41
0.094488
 42
0.094488
 43
1.000000
 50
90.000000
  0
INSERT
  8
17
  2
ROUNDP
 10
0.425000
 20
0.550000
 30
0.000000
 41
0.094488
 42
0.094488
 43
1.000000
 50
90.000000
  0
INSERT
  8
17
  2
ROUNDP
 10
0.425000
 20
0.550000
 30
0.000000
 41
0.094488
 42
0.094488
 43
1.000000
 50
90.000000
  0
INSERT
  8
17
  2
ROUNDP
 10
0.425000
 20
0.700000
 30
0.000000
 41
0.094488
 42
0.094488
 43
1.000000
 50
90.000000
  0
INSERT
  8
17
  2
ROUNDP
 10
0.425000
 20
0.700000
 30
0.000000
 41
0.094488
 42
0.094488
 43
1.000000
 50
90.000000
  0
INSERT
  8
17
  2
ROUNDP
 10
1.775000
 20
1.300000
 30
0.000000
 41
0.094488
 42
0.094488
 43
1.000000
 50
90.000000
  0
INSERT
  8
17
  2
ROUNDP
 10
1.775000
 20
1.300000
 30
0.000000
 41
0.094488
 42
0.094488
 43
1.000000
 50
90.000000
  0
INSERT
  8
17
  2
ROUNDP
 10
1.775000
 20
1.600000
 30
0.000000
 41
0.094488
 42
0.094488
 43
1.000000
 50
90.000000
  0
INSERT
  8
17
  2
ROUNDP
 10
1.775000
 20
1.600000
 30
0.000000
 41
0.094488
 42
0.094488
 43
1.000000
 50
90.000000
  0
POLYLINE
  8
1
 66
1
 10
0.000000
 20
0.000000
 30
0.000000
 40
0.016000
 41
0.016000
 70
0
  0
VERTEX
  8
1
 10
0.100000
 20
0.707000
 30
0.000000
  0
VERTEX
  8
1
 10
0.443000
 20
0.707000
 30
0.000000
  0
SEQEND
  8
0
  0
POLYLINE
  8
1
 66
1
 10
0.000000
 20
0.000000
 30
0.000000
 40
0.008000
 41
0.008000
 70
0
  0
VERTEX
  8
1
 10
0.443000
 20
0.703000
 30
0.000000
 42
1.000000
  0
VERTEX
  8
1
 10
0.443000
 20
0.711000
 30
0.000000
  0
SEQEND
  8
0
  0
POLYLINE
  8
1
 66
1
 10
0.000000
 20
0.000000
 30
0.000000
 40
0.008000
 41
0.008000
 70
0
  0
VERTEX
  8
1
 10
0.100000
 20
0.711000
 30
0.000000
 42
1.000000
  0
VERTEX
  8
1
 10
0.100000
 20
0.703000
 30
0.000000
  0
SEQEND
  8
0
  0
POLYLINE
  8
1
 66
1
 10
0.000000
 20
0.000000
 30
0.000000
 40
0.016000
 41
0.016000
 70
0
  0
VERTEX
  8
1
 10
0.450000
 20
0.700000
 30
0.000000
 42
0.414214
  0
VERTEX
  8
1
 10
0.443000
 20
0.707000
 30
0.000000
  0
SEQEND
  8
0
  0
POLYLINE
  8
1
 66
1
 10
0.000000
 20
0.000000
 30
0.000000
 40
0.008000
 41
0.008000
 70
0
  0
VERTEX
  8
1
 10
0.446000
 20
0.700000
 30
0.000000
 42
1.000000
  0
VERTEX
  8
1
 10
0.454000
 20
0.700000
 30
0.000000
  0
SEQEND
  8
0
  0
POLYLINE
  8
1
 66
1
 10
0.000000
 20
0.000000
 30
0.000000
 40
0.008000
 41
0.008000
 70
0
  0
VERTEX
  8
1
 10
0.443000
 20
0.711000
 30
0.000000
 42
1.000000
  0
VERTEX
  8
1
 10
0.443000
 20
0.703000
 30
0.000000
  0
SEQEND
  8
0
  0
POLYLINE
  8
1
 66
1
 10
0.000000
 20
0.000000
 30
0.000000
 40
0.016000
 41
0.016000
 70
0
  0
VERTEX
  8
1
 10
0.450000
 20
0.700000
 30
0.000000
  0
VERTEX
  8
1
 10
0.425000
 20
0.700000
 30
0.000000
  0
SEQEND
  8
0
  0
POLYLINE
  8
1
 66
1
 10
0.000000
 20
0.000000
 30
0.000000
 40
0.008000
 41
0.008000
 70
0
  0
VERTEX
  8
1
 10
0.425000
 20
0.704000
 30
0.000000
 42
1.000000
  0
VERTEX
  8
1
 10
0.425000
 20
0.696000
 30
0.000000
  0
SEQEND
  8
0
  0
POLYLINE
  8
1
 66
1
 10
0.000000
 20
0.000000
 30
0.000000
 40
0.008000
 41
0.008000
 70
0
  0
VERTEX
  8
1
 10
0.450000
 20
0.696000
 30
0.000000
 42
1.000000
  0
VERTEX
  8
1
 10
0.450000
 20
0.704000
 30
0.000000
  0
SEQEND
  8
0
  0
POLYLINE
  8
1
 66
1
 10
0.000000
 20
0.000000
 30
0.000000
 40
0.016000
 41
0.016000
 70
0
  0
VERTEX
  8
1
 10
0.100000
 20
0.593000
 30
0.000000
  0
VERTEX
  8
1
 10
0.382000
 20
0.593000
 30
0.000000
  0
SEQEND
  8
0
  0
POLYLINE
  8
1
 66
1
 10
0.000000
 20
0.000000
 30
0.000000
 40
0.008000
 41
0.008000
 70
0
  0
VERTEX
  8
1
 10
0.382000
 20
0.589000
 30
0.000000
 42
1.000000
  0
VERTEX
  8
1
 10
0.382000
 20
0.597000
 30
0.000000
  0
SEQEND
  8
0
  0
POLYLINE
  8
1
 66
1
 10
0.000000
 20
0.000000
 30
0.000000
 40
0.008000
 41
0.008000
 70
0
  0
VERTEX
  8
1
 10
0.100000
 20
0.597000
 30
0.000000
 42
1.000000
  0
VERTEX
  8
1
 10
0.100000
 20
0.589000
 30
0.000000
  0
SEQEND
  8
0
  0
POLYLINE
  8
1
 66
1
 10
0.000000
 20
0.000000
 30
0.000000
 40
0.016000
 41
0.016000
 70
0
  0
VERTEX
  8
1
 10
0.425000
 20
0.550000
 30
0.000000
 42
0.414214
  0
VERTEX
  8
1
 10
0.382000
 20
0.593000
 30
0.000000
  0
SEQEND
  8
0
  0
POLYLINE
  8
1
 66
1
 10
0.000000
 20
0.000000
 30
0.000000
 40
0.008000
 41
0.008000
 70
0
  0
VERTEX
  8
1
 10
0.421000
 20
0.550000
 30
0.000000
 42
1.000000
  0
VERTEX
  8
1
 10
0.429000
 20
0.550000
 30
0.000000
  0
SEQEND
  8
0
  0
POLYLINE
  8
1
 66
1
 10
0.000000
 20
0.000000
 30
0.000000
 40
0.008000
 41
0.008000
 70
0
  0
VERTEX
  8
1
 10
0.382000
 20
0.597000
 30
0.000000
 42
1.000000
  0
VERTEX
  8
1
 10
0.382000
 20
0.589000
 30
0.000000
  0
SEQEND
  8
0
  0
POLYLINE
  8
1
 66
1
 10
0.000000
 20
0.000000
 30
0.000000
 40
0.016000
 41
0.016000
 70
0
  0
VERTEX
  8
1
 10
1.775000
 20
1.600000
 30
0.000000
  0
VERTEX
  8
1
 10
2.007000
 20
1.600000
 30
0.000000
  0
SEQEND
  8
0
  0
POLYLINE
  8
1
 66
1
 10
0.000000
 20
0.000000
 30
0.000000
 40
0.008000
 41
0.008000
 70
0
  0
VERTEX
  8
1
 10
2.007000
 20
1.596000
 30
0.000000
 42
1.000000
  0
VERTEX
  8
1
 10
2.007000
 20
1.604000
 30
0.000000
  0
SEQEND
  8
0
  0
POLYLINE
  8
1
 66
1
 10
0.000000
 20
0.000000
 30
0.000000
 40
0.008000
 41
0.008000
 70
0
  0
VERTEX
  8
1
 10
1.775000
 20
1.604000
 30
0.000000
 42
1.000000
  0
VERTEX
  8
1
 10
1.775000
 20
1.596000
 30
0.000000
  0
SEQEND
  8
0
  0
POLYLINE
  8
1
 66
1
 10
0.000000
 20
0.000000
 30
0.000000
 40
0.016000
 41
0.016000
 70
0
  0
VERTEX
  8
1
 10
2.100000
 20
1.507000
 30
0.000000
 42
0.414214
  0
VERTEX
  8
1
 10
2.007000
 20
1.600000
 30
0.000000
  0
SEQEND
  8
0
  0
POLYLINE
  8
1
 66
1
 10
0.000000
 20
0.000000
 30
0.000000
 40
0.008000
 41
0.008000
 70
0
  0
VERTEX
  8
1
 10
2.096000
 20
1.507000
 30
0.000000
 42
1.000000
  0
VERTEX
  8
1
 10
2.104000
 20
1.507000
 30
0.000000
  0
SEQEND
  8
0
  0
POLYLINE
  8
1
 66
1
 10
0.000000
 20
0.000000
 30
0.000000
 40
0.008000
 41
0.008000
 70
0
  0
VERTEX
  8
1
 10
2.007000
 20
1.604000
 30
0.000000
 42
1.000000
  0
VERTEX
  8
1
 10
2.007000
 20
1.596000
 30
0.000000
  0
SEQEND
  8
0
  0
POLYLINE
  8
1
 66
1
 10
0.000000
 20
0.000000
 30
0.000000
 40
0.016000
 41
0.016000
 70
0
  0
VERTEX
  8
1
 10
1.775000
 20
1.300000
 30
0.000000
  0
VERTEX
  8
1
 10
2.007000
 20
1.300000
 30
0.000000
  0
SEQEND
  8
0
  0
POLYLINE
  8
1
 66
1
 10
0.000000
 20
0.000000
 30
0.000000
 40
0.008000
 41
0.008000
 70
0
  0
VERTEX
  8
1
 10
2.007000
 20
1.296000
 30
0.000000
 42
1.000000
  0
VERTEX
  8
1
 10
2.007000
 20
1.304000
 30
0.000000
  0
SEQEND
  8
0
  0
POLYLINE
  8
1
 66
1
 10
0.000000
 20
0.000000
 30
0.000000
 40
0.008000
 41
0.008000
 70
0
  0
VERTEX
  8
1
 10
1.775000
 20
1.304000
 30
0.000000
 42
1.000000
  0
VERTEX
  8
1
 10
1.775000
 20
1.296000
 30
0.000000
  0
SEQEND
  8
0
  0
POLYLINE
  8
1
 66
1
 10
0.000000
 20
0.000000
 30
0.000000
 40
0.016000
 41
0.016000
 70
0
  0
VERTEX
  8
1
 10
2.007000
 20
1.300000
 30
0.000000
 42
0.414214
  0
VERTEX
  8
1
 10
2.100000
 20
1.393000
 30
0.000000
  0
SEQEND
  8
0
  0
POLYLINE
  8
1
 66
1
 10
0.000000
 20
0.000000
 30
0.000000
 40
0.008000
 41
0.008000
 70
0
  0
VERTEX
  8
1
 10
2.007000
 20
1.304000
 30
0.000000
 42
1.000000
  0
VERTEX
  8
1
 10
2.007000
 20
1.296000
 30
0.000000
  0
SEQEND
  8
0
  0
POLYLINE
  8
1
 66
1
 10
0.000000
 20
0.000000
 30
0.000000
 40
0.008000
 41
0.008000
 70
0
  0
VERTEX
  8
1
 10
2.104000
 20
1.393000
 30
0.000000
 42
1.000000
  0
VERTEX
  8
1
 10
2.096000
 20
1.393000
 30
0.000000
  0
SEQEND
  8
0
  0
ENDSEC
  0
EOF
